<svg width="52" height="52" viewBox="0 0 52 52" fill="none" xmlns="http://www.w3.org/2000/svg">
<path d="M51.9999 26C51.9999 40.3594 40.3594 51.9999 26 51.9999C11.6406 51.9999 0 40.3594 0 26C0 11.6406 11.6406 0 26 0C40.3594 0 51.9999 11.6406 51.9999 26ZM4.16 26C4.16 38.0619 13.9381 47.8399 26 47.8399C38.0619 47.8399 47.8399 38.0619 47.8399 26C47.8399 13.9381 38.0619 4.16 26 4.16C13.9381 4.16 4.16 13.9381 4.16 26Z" fill="#121123"/>
<path d="M26 2.08006C26 0.931308 26.9327 -0.00858806 28.0778 0.0832126C31.5983 0.365454 35.032 1.36273 38.1661 3.02215C41.9143 5.00672 45.1201 7.87808 47.504 11.3859C49.8879 14.8937 51.3775 18.9314 51.8429 23.1469C52.3083 27.3625 51.7354 31.6279 50.1741 35.5713C48.6129 39.5146 46.1106 43.0161 42.8856 45.7706C39.6606 48.525 35.8107 50.4487 31.6717 51.3738C27.5327 52.299 23.2301 52.1976 19.1393 51.0785C15.7187 50.1427 12.5329 48.5191 9.77336 46.3149C8.87579 45.598 8.83925 44.2743 9.62562 43.4369C10.412 42.5995 11.7228 42.5671 12.6312 43.2703C14.8881 45.0173 17.4712 46.3093 20.237 47.0659C23.6733 48.006 27.2874 48.0912 30.7642 47.314C34.241 46.5369 37.4749 44.921 40.1839 42.6073C42.8929 40.2936 44.9948 37.3523 46.3063 34.0399C47.6177 30.7274 48.099 27.1445 47.7081 23.6034C47.3171 20.0624 46.0659 16.6707 44.0634 13.7241C42.0609 10.7776 39.368 8.36565 36.2195 6.69861C33.6854 5.35684 30.918 4.53043 28.0769 4.25903C26.9333 4.14979 26 3.22881 26 2.08006Z" fill="url(#paint0_linear_2426_4395)"/>
<defs>
<linearGradient id="paint0_linear_2426_4395" x1="5.90908" y1="52" x2="59.6817" y2="5.35475e-05" gradientUnits="userSpaceOnUse">
<stop stop-color="#7012CF"/>
<stop offset="1" stop-color="#CD9CFF"/>
</linearGradient>
</defs>
</svg>
