<svg width="40" height="26" viewBox="0 0 40 26" fill="none" xmlns="http://www.w3.org/2000/svg">
<path d="M22.5322 9.71046V5.19995H31.8526C33.4552 5.19995 34.8575 5.50472 36.0594 6.11424C37.2613 6.72377 38.1962 7.5805 38.8639 8.68442C39.5317 9.78835 39.8656 11.0785 39.8656 12.5549C39.8656 14.0449 39.5211 15.3351 38.8323 16.4254C38.1505 17.5158 37.1911 18.3556 35.954 18.9448C34.7239 19.534 32.2216 19.8286 28.4844 19.8286V26H22.5322V15.44H30.4609C31.1497 15.44 31.7366 15.3249 32.2216 15.0946C32.7136 14.8576 33.0897 14.5224 33.3497 14.0889C33.6168 13.6555 33.7504 13.1441 33.7504 12.5549C33.7504 11.9589 33.6168 11.451 33.3497 11.0311C33.0897 10.6044 32.7136 10.2794 32.2216 10.0559C31.7366 9.8256 31.1497 9.71046 30.4609 9.71046H28.3944H22.5322Z" fill="white"/>
<path d="M13.0706 5.44856L19.0667 0V18.4618C19.0667 20.0091 18.6641 21.3482 17.8588 22.4789C17.0608 23.603 15.9464 24.4725 14.5157 25.0875C13.085 25.6958 11.4242 26 9.53333 26C7.6281 26 5.96013 25.6958 4.52941 25.0875C3.09869 24.4725 1.98431 23.603 1.18627 22.4789C0.395425 21.3482 0 20.0091 0 18.4618V5.44856H5.99608V17.9857C5.99608 18.6139 6.14706 19.176 6.44902 19.6719C6.75098 20.1612 7.16797 20.5447 7.7 20.8225C8.23922 21.1002 8.85033 21.239 9.53333 21.239C10.2235 21.239 10.8346 21.1002 11.3667 20.8225C11.8987 20.5447 12.3157 20.1612 12.6176 19.6719C12.9196 19.176 13.0706 18.6139 13.0706 17.9857V5.44856Z" fill="white"/>
</svg>
