<svg width="24" height="24" viewBox="0 0 24 24" fill="none" xmlns="http://www.w3.org/2000/svg">
<path fill-rule="evenodd" clip-rule="evenodd" d="M10 4C10 2.89543 10.8954 2 12 2C13.1046 2 14 2.89543 14 4C14 4.60452 13.7318 5.1464 13.3079 5.51313L14.2626 7.74084C14.5514 8.41462 14.7427 8.85864 14.9153 9.17945C15.0847 9.4943 15.1813 9.58169 15.2271 9.6139C15.43 9.75686 15.6788 9.81923 15.9252 9.78889C15.9807 9.78205 16.1071 9.75056 16.405 9.55283C16.7085 9.35136 17.0866 9.05006 17.6591 8.59213L18.3106 8.07092C18.1139 7.76131 18 7.39395 18 7C18 5.89543 18.8954 5 20 5C21.1046 5 22 5.89543 22 7C22 7.78835 21.5439 8.47016 20.8811 8.79594L18.9864 20.1644C18.906 20.6466 18.4888 21 18 21H6C5.51116 21 5.09397 20.6466 5.01361 20.1644L3.11886 8.79594C2.45612 8.47016 2 7.78835 2 7C2 5.89543 2.89543 5 4 5C5.10457 5 6 5.89543 6 7C6 7.39395 5.8861 7.7613 5.68943 8.07092L6.34094 8.59213C6.91336 9.05006 7.29148 9.35136 7.595 9.55283C7.89288 9.75056 8.01929 9.78205 8.0748 9.78889C8.32117 9.81923 8.57002 9.75686 8.77295 9.6139C8.81867 9.58169 8.91528 9.4943 9.08469 9.17945C9.25731 8.85865 9.44862 8.41462 9.73739 7.74084L10.6921 5.51313C10.2682 5.1464 10 4.60452 10 4ZM12 7.53859L11.5582 8.56946C11.2917 9.19145 11.0658 9.71847 10.8459 10.1271C10.618 10.5506 10.3423 10.9548 9.92476 11.2489C9.31596 11.6778 8.56942 11.8649 7.83032 11.7739C7.32341 11.7115 6.88963 11.4851 6.48894 11.2192C6.17505 11.0108 5.82089 10.7355 5.41597 10.4131L6.84713 19H17.1529L18.584 10.4131C18.1791 10.7355 17.825 11.0108 17.5111 11.2192C17.1104 11.4851 16.6766 11.7115 16.1697 11.7739C15.4306 11.8649 14.684 11.6778 14.0752 11.2489C13.6577 10.9548 13.382 10.5506 13.1541 10.1271C12.9342 9.71846 12.7083 9.19144 12.4418 8.56943L12 7.53859Z" fill="url(#paint0_linear_146_1604)"/>
<defs>
<linearGradient id="paint0_linear_146_1604" x1="-8" y1="11.5" x2="10.975" y2="31.4737" gradientUnits="userSpaceOnUse">
<stop stop-color="#F456FE"/>
<stop offset="1" stop-color="#8D79F9"/>
</linearGradient>
</defs>
</svg>
