<svg width="24" height="24" viewBox="0 0 24 24" fill="none" xmlns="http://www.w3.org/2000/svg">
<path fill-rule="evenodd" clip-rule="evenodd" d="M11.9097 1.99989C11.9398 1.99995 11.97 2 12.0001 2C12.0302 2 12.0604 1.99995 12.0905 1.99989C12.4637 1.99923 12.8369 1.99856 13.1848 2.10008C13.6868 2.24656 14.1303 2.5468 14.4528 2.95851C14.6762 3.24384 14.8142 3.59058 14.9522 3.93736C14.9633 3.96536 14.9745 3.99336 14.9857 4.02133C15.0377 4.1515 15.1822 4.21853 15.3153 4.17419L15.8857 3.98405C15.9117 3.97537 15.9378 3.96664 15.9638 3.95791C16.2887 3.84902 16.6141 3.73996 16.9496 3.72042C17.4355 3.69211 17.9192 3.80628 18.3412 4.04893C18.6325 4.21645 18.8747 4.45949 19.1166 4.70218C19.136 4.72164 19.1554 4.7411 19.1748 4.76052C19.1955 4.78122 19.2163 4.8019 19.237 4.82258C19.4946 5.07926 19.7523 5.33603 19.9245 5.64551C20.174 6.09377 20.2795 6.60793 20.2268 7.11821C20.1904 7.47052 20.0547 7.80803 19.9191 8.14542C19.9081 8.1726 19.8972 8.19978 19.8863 8.22697C19.8048 8.43082 19.8833 8.66371 20.0715 8.77666L20.3494 8.94338C20.3766 8.95969 20.4038 8.97595 20.431 8.99222C20.7729 9.19647 21.1167 9.40185 21.3775 9.69845C21.6051 9.9573 21.7768 10.2604 21.8816 10.5888C22.0018 10.9651 22.001 11.3682 22.0002 11.7698C22.0002 11.802 22.0001 11.8341 22.0001 11.8663C22.0001 11.9047 22.0002 11.9431 22.0003 11.9815C22.0013 12.4551 22.0024 12.9295 21.8424 13.3583C21.7031 13.7318 21.4764 14.0666 21.1814 14.3347C20.8427 14.6425 20.4047 14.8165 19.9684 14.9899C19.9335 15.0038 19.8986 15.0176 19.8638 15.0316C19.8634 15.0317 19.8631 15.0318 19.8628 15.032C19.7975 15.0581 19.7639 15.1305 19.7861 15.1972L20.0012 15.8422C20.0107 15.8709 20.0204 15.8997 20.03 15.9284C20.1503 16.287 20.2709 16.6466 20.2823 17.0178C20.2959 17.4579 20.193 17.8938 19.984 18.2814C19.8078 18.6083 19.5391 18.876 19.2712 19.143C19.2497 19.1644 19.2282 19.1858 19.2068 19.2072C19.1854 19.2286 19.164 19.2501 19.1426 19.2716C18.8756 19.5395 18.6079 19.8081 18.281 19.9844C17.8935 20.1934 17.4576 20.2963 17.0174 20.2827C16.6462 20.2712 16.2867 20.1507 15.928 20.0304C15.8993 20.0208 15.8706 20.0111 15.8418 20.0015L15.3151 19.8259C15.1822 19.7816 15.0377 19.8486 14.9857 19.9787C14.9745 20.0066 14.9633 20.0346 14.9522 20.0626C14.8142 20.4094 14.6762 20.7562 14.4528 21.0415C14.1303 21.4532 13.6868 21.7534 13.1848 21.8999C12.8369 22.0014 12.4637 22.0008 12.0905 22.0001C12.0604 22.0001 12.0302 22 12.0001 22C11.97 22 11.9398 22.0001 11.9097 22.0001C11.5365 22.0008 11.1633 22.0014 10.8154 21.8999C10.3134 21.7534 9.86991 21.4532 9.54745 21.0415C9.32398 20.7562 9.186 20.4094 9.048 20.0626C9.03701 20.035 9.02601 20.0074 9.01498 19.9798C9.01483 19.9794 9.01468 19.979 9.01454 19.9787C8.96247 19.8485 8.81795 19.7815 8.68495 19.8258L8.15797 20.0015C8.12923 20.0111 8.10049 20.0207 8.07174 20.0303C7.71314 20.1506 7.35358 20.2712 6.98235 20.2826C6.54223 20.2962 6.10634 20.1933 5.71876 19.9843C5.39185 19.8081 5.12418 19.5394 4.85722 19.2715C4.83582 19.25 4.81442 19.2285 4.79299 19.2071C4.77157 19.1857 4.75009 19.1643 4.72861 19.1429C4.46068 18.8759 4.19203 18.6083 4.01577 18.2813C3.80679 17.8938 3.70389 17.4579 3.71747 17.0178C3.72893 16.6465 3.84951 16.287 3.96977 15.9284C3.97941 15.8996 3.98905 15.8709 3.99863 15.8421L4.21378 15.1967C4.23594 15.1302 4.20244 15.058 4.13737 15.0319C4.10223 15.0179 4.06702 15.0039 4.03181 14.9899C3.59545 14.8165 3.15754 14.6425 2.81883 14.3347C2.52379 14.0666 2.29715 13.7318 2.1578 13.3583C1.9978 12.9295 1.99887 12.4551 1.99993 11.9815C2.00001 11.9431 2.0001 11.9047 2.0001 11.8663C2.0001 11.8341 2.00004 11.802 1.99998 11.7698C1.9992 11.3682 1.99842 10.9651 2.11859 10.5888C2.22345 10.2604 2.39507 9.9573 2.62267 9.69845C2.88348 9.40184 3.22727 9.19647 3.56918 8.99222C3.59639 8.97597 3.62359 8.95972 3.65073 8.94343C3.65076 8.94342 3.65071 8.94345 3.65073 8.94343L3.92824 8.77689C4.11654 8.66389 4.195 8.43094 4.11344 8.22705C4.10257 8.19986 4.09164 8.17267 4.08071 8.14549C3.94507 7.8081 3.80938 7.47059 3.77298 7.11829C3.72026 6.608 3.82579 6.09385 4.07527 5.64559C4.2475 5.33611 4.50517 5.07934 4.76275 4.82266C4.7835 4.80198 4.80425 4.7813 4.82496 4.76059C4.84437 4.74118 4.86376 4.72172 4.88316 4.70226C5.12505 4.45957 5.36729 4.21652 5.65863 4.049C6.08062 3.80636 6.56427 3.69218 7.05022 3.72049C7.38572 3.74004 7.71109 3.84909 8.03598 3.95799C8.06199 3.96671 8.088 3.97542 8.11401 3.98409C8.11404 3.9841 8.11397 3.98408 8.11401 3.98409L8.6848 4.17428C8.81787 4.21862 8.96244 4.15156 9.01454 4.02133C9.02572 3.99336 9.03687 3.96536 9.04801 3.93736C9.186 3.59058 9.32398 3.24384 9.54745 2.95851C9.8699 2.5468 10.3134 2.24656 10.8154 2.10008C11.1633 1.99856 11.5365 1.99923 11.9097 1.99989ZM10.8715 4.76411C10.4261 5.87747 9.19019 6.45079 8.05255 6.07172L7.48177 5.88153C7.02291 5.72858 6.96847 5.71912 6.9339 5.71711C6.83671 5.71145 6.73998 5.73428 6.65559 5.78281C6.62557 5.80007 6.58119 5.83279 6.23917 6.1748C5.87538 6.53859 5.8405 6.58647 5.82285 6.61819C5.77295 6.70784 5.75185 6.81067 5.76239 6.91273C5.76612 6.94884 5.77932 7.00659 5.9704 7.48427C6.4165 8.59952 5.98733 9.87368 4.9574 10.4918L4.67989 10.6583C4.19833 10.9473 4.15167 10.9884 4.12461 11.0191C4.07909 11.0709 4.04477 11.1315 4.0238 11.1972C4.01141 11.236 4.0001 11.2987 4.0001 11.8663C4.0001 12.5399 4.01538 12.6156 4.03164 12.6592C4.05951 12.7339 4.10484 12.8009 4.16385 12.8545C4.19848 12.886 4.26129 12.9274 4.88015 13.175C5.92843 13.5943 6.46818 14.758 6.11115 15.8291L5.896 16.4746C5.72703 16.9815 5.7177 17.0412 5.71652 17.0794C5.71381 17.1675 5.73439 17.2546 5.77618 17.3322C5.79434 17.3658 5.82939 17.4151 6.20721 17.7929C6.58502 18.1707 6.63426 18.2058 6.66794 18.2239C6.74545 18.2657 6.83263 18.2863 6.92066 18.2836C6.95891 18.2824 7.01862 18.2731 7.52551 18.1041L8.05249 17.9284C9.19011 17.5492 10.4261 18.1225 10.8715 19.2359C11.0678 19.7267 11.0992 19.7791 11.122 19.8083C11.1865 19.8906 11.2752 19.9507 11.3756 19.98C11.4112 19.9904 11.4715 20 12.0001 20C12.5287 20 12.589 19.9904 12.6246 19.98C12.725 19.9507 12.8137 19.8906 12.8782 19.8083C12.901 19.7791 12.9324 19.7267 13.1287 19.2359C13.5741 18.1225 14.8102 17.5493 15.9478 17.9286L16.4743 18.1042C16.4743 18.1042 16.4742 18.1042 16.4743 18.1042C16.9811 18.2731 17.0409 18.2825 17.0791 18.2837C17.1672 18.2864 17.2543 18.2658 17.3318 18.224C17.3655 18.2058 17.4148 18.1708 17.7926 17.793C18.1704 17.4152 18.2054 17.3659 18.2236 17.3322C18.2654 17.2547 18.286 17.1675 18.2833 17.0795C18.2821 17.0413 18.2728 16.9816 18.1038 16.4747L17.8888 15.8296C17.5317 14.7583 18.0716 13.5943 19.1201 13.175C19.7389 12.9274 19.8017 12.886 19.8364 12.8545C19.8954 12.8009 19.9407 12.7339 19.9686 12.6592C19.9848 12.6156 20.0001 12.5399 20.0001 11.8663C20.0001 11.2987 19.9888 11.236 19.9764 11.1972C19.9554 11.1315 19.9211 11.0709 19.8756 11.0191C19.8485 10.9884 19.802 10.9473 19.3204 10.6584L19.0425 10.4917C18.0125 9.87364 17.5833 8.59947 18.0294 7.48419C18.2205 7.00651 18.2337 6.94876 18.2374 6.91266C18.2479 6.8106 18.2268 6.70777 18.1769 6.61811C18.1593 6.5864 18.1244 6.53852 17.7606 6.17473C17.4186 5.83271 17.3742 5.8 17.3442 5.78273C17.2598 5.7342 17.1631 5.71137 17.0659 5.71703C17.0313 5.71905 16.977 5.72846 16.5181 5.88142L15.9477 6.07156C14.8101 6.45076 13.5741 5.87749 13.1287 4.76411C12.9324 4.27334 12.901 4.22088 12.8782 4.1917C12.8137 4.10936 12.725 4.04931 12.6246 4.02002C12.589 4.00964 12.5287 4 12.0001 4C11.4715 4 11.4112 4.00964 11.3756 4.02002C11.2752 4.04931 11.1865 4.10936 11.122 4.1917C11.0992 4.22088 11.0678 4.27334 10.8715 4.76411ZM12.0001 10C10.8955 10 10.0001 10.8954 10.0001 12C10.0001 13.1046 10.8955 14 12.0001 14C13.1047 14 14.0001 13.1046 14.0001 12C14.0001 10.8954 13.1047 10 12.0001 10ZM8.0001 12C8.0001 9.79086 9.79096 8 12.0001 8C14.2092 8 16.0001 9.79086 16.0001 12C16.0001 14.2091 14.2092 16 12.0001 16C9.79096 16 8.0001 14.2091 8.0001 12Z" fill="url(#paint0_linear_146_1596)"/>
<defs>
<linearGradient id="paint0_linear_146_1596" x1="-8.00059" y1="12" x2="11.9998" y2="32.0007" gradientUnits="userSpaceOnUse">
<stop stop-color="#F456FE"/>
<stop offset="1" stop-color="#8D79F9"/>
</linearGradient>
</defs>
</svg>
