<svg width="24" height="24" viewBox="0 0 24 24" fill="none" xmlns="http://www.w3.org/2000/svg">
<path fill-rule="evenodd" clip-rule="evenodd" d="M7.16146 3H14.8385C15.3657 2.99998 15.8205 2.99997 16.195 3.03057C16.5904 3.06287 16.9836 3.13419 17.362 3.32698C17.9265 3.6146 18.3854 4.07354 18.673 4.63803C18.8658 5.01641 18.9371 5.40963 18.9694 5.80497C19 6.17955 19 6.63432 19 7.16148V8.17825C19.1219 8.21747 19.2427 8.26619 19.362 8.32698C19.9265 8.6146 20.3854 9.07354 20.673 9.63803C20.8658 10.0164 20.9371 10.4096 20.9694 10.805C21 11.1795 21 11.6343 21 12.1614V20C21 20.3688 20.797 20.7077 20.4719 20.8817C20.1467 21.0557 19.7522 21.0366 19.4453 20.8321L17.2515 19.3695C16.9232 19.1506 16.8569 19.1108 16.7945 19.0835C16.7226 19.0521 16.6472 19.0293 16.5699 19.0155C16.5029 19.0036 16.4257 19 16.0311 19H11.1615C10.6343 19 10.1796 19 9.80497 18.9694C9.40963 18.9371 9.01641 18.8658 8.63803 18.673C8.10807 18.403 7.67114 17.982 7.38167 17.4644L4.4381 18.8989C4.12818 19.05 3.76231 19.0307 3.46995 18.848C3.1776 18.6652 3 18.3448 3 18L3 7.16146C2.99998 6.63431 2.99997 6.17954 3.03057 5.80497C3.06287 5.40963 3.13419 5.01641 3.32698 4.63803C3.6146 4.07354 4.07354 3.6146 4.63803 3.32698C5.01641 3.13419 5.40963 3.06287 5.80497 3.03057C6.17955 2.99997 6.63431 2.99998 7.16146 3ZM9.02092 15.9931C9.02026 15.9789 9.01929 15.9646 9.01801 15.9503C9.00064 15.6775 9 15.3227 9 14.8V12.2C9 11.6234 9.00078 11.2512 9.02393 10.9678C9.04612 10.6962 9.0838 10.5955 9.109 10.546C9.20487 10.3578 9.35785 10.2049 9.54601 10.109C9.59546 10.0838 9.69617 10.0461 9.96784 10.0239C10.2512 10.0008 10.6234 10 11.2 10H16.8C17.3766 10 17.7488 10.0008 18.0322 10.0239C18.3038 10.0461 18.4045 10.0838 18.454 10.109C18.6422 10.2049 18.7951 10.3578 18.891 10.546C18.9162 10.5955 18.9539 10.6962 18.9761 10.9678C18.9992 11.2512 19 11.6234 19 12.2V18.1315L18.3609 17.7054C18.3438 17.694 18.327 17.6828 18.3102 17.6716C18.0604 17.5048 17.84 17.3577 17.5947 17.2506C17.3789 17.1564 17.1527 17.0879 16.9209 17.0466C16.6574 16.9996 16.3924 16.9998 16.092 17C16.0719 17 16.0516 17 16.0311 17H11.2C10.6234 17 10.2512 16.9992 9.96784 16.9761C9.69617 16.9539 9.59546 16.9162 9.54601 16.891C9.35785 16.7951 9.20487 16.6422 9.109 16.454C9.0838 16.4045 9.04612 16.3038 9.02393 16.0322C9.02288 16.0193 9.02188 16.0063 9.02092 15.9931ZM7.00182 15.4246L5 16.4002V7.2C5 6.62345 5.00078 6.25117 5.02393 5.96784C5.04612 5.69617 5.0838 5.59545 5.109 5.54601C5.20487 5.35785 5.35785 5.20487 5.54601 5.10899C5.59545 5.0838 5.69617 5.04612 5.96784 5.02393C6.25117 5.00078 6.62345 5 7.2 5H14.8C15.3766 5 15.7488 5.00078 16.0322 5.02393C16.3038 5.04612 16.4045 5.0838 16.454 5.10899C16.6422 5.20487 16.7951 5.35785 16.891 5.54601C16.9162 5.59545 16.9539 5.69617 16.9761 5.96784C16.9992 6.25117 17 6.62345 17 7.2V8.00003C16.947 8 16.8931 8 16.8385 8H11.1615C10.6343 7.99998 10.1795 7.99997 9.80497 8.03057C9.40963 8.06287 9.01641 8.13419 8.63803 8.32698C8.07354 8.6146 7.6146 9.07354 7.32698 9.63803C7.13419 10.0164 7.06287 10.4096 7.03057 10.805C6.99997 11.1795 6.99998 11.6343 7 12.1615V14.8385C6.99999 15.0452 6.99999 15.2407 7.00182 15.4246Z" fill="url(#paint0_linear_146_1588)"/>
<defs>
<linearGradient id="paint0_linear_146_1588" x1="-6" y1="12" x2="12" y2="30" gradientUnits="userSpaceOnUse">
<stop stop-color="#F456FE"/>
<stop offset="1" stop-color="#8D79F9"/>
</linearGradient>
</defs>
</svg>
