<svg width="24" height="24" viewBox="0 0 24 24" fill="none" xmlns="http://www.w3.org/2000/svg">
<path fill-rule="evenodd" clip-rule="evenodd" d="M6.16146 2H11.8385C12.3657 1.99998 12.8205 1.99997 13.195 2.03057C13.5904 2.06287 13.9836 2.13419 14.362 2.32698C14.9265 2.6146 15.3854 3.07354 15.673 3.63803C15.8658 4.01641 15.9371 4.40963 15.9694 4.80497C16 5.17955 16 5.63432 16 6.16148V10C16 10.5523 15.5523 11 15 11C14.4477 11 14 10.5523 14 10V6.2C14 5.62345 13.9992 5.25118 13.9761 4.96784C13.9539 4.69617 13.9162 4.59546 13.891 4.54601C13.7951 4.35785 13.6422 4.20487 13.454 4.109C13.4045 4.0838 13.3038 4.04612 13.0322 4.02393C12.7488 4.00078 12.3766 4 11.8 4H6.2C5.62345 4 5.25118 4.00078 4.96784 4.02393C4.69617 4.04612 4.59546 4.0838 4.54601 4.109C4.35785 4.20487 4.20487 4.35785 4.109 4.54601C4.0838 4.59546 4.04612 4.69617 4.02393 4.96784C4.00078 5.25117 4 5.62345 4 6.2V17.8C4 18.3766 4.00078 18.7488 4.02393 19.0322C4.04612 19.3038 4.0838 19.4045 4.109 19.454C4.20487 19.6422 4.35785 19.7951 4.54601 19.891C4.59545 19.9162 4.69617 19.9539 4.96784 19.9761C5.25118 19.9992 5.62345 20 6.2 20H9C9.55229 20 10 20.4477 10 21C10 21.5523 9.55229 22 9 22H6.16144C5.6343 22 5.17954 22 4.80497 21.9694C4.40963 21.9371 4.01641 21.8658 3.63803 21.673C3.07354 21.3854 2.6146 20.9265 2.32698 20.362C2.13419 19.9836 2.06287 19.5904 2.03057 19.195C1.99997 18.8205 1.99998 18.3657 2 17.8385V6.16146C1.99998 5.63431 1.99997 5.17955 2.03057 4.80497C2.06287 4.40963 2.13419 4.01641 2.32698 3.63803C2.6146 3.07354 3.07354 2.6146 3.63803 2.32698C4.01641 2.13419 4.40963 2.06287 4.80497 2.03057C5.17955 1.99997 5.63431 1.99998 6.16146 2ZM7 6C7 5.44772 7.44772 5 8 5H10C10.5523 5 11 5.44772 11 6C11 6.55229 10.5523 7 10 7H8C7.44772 7 7 6.55229 7 6ZM21 14C17.134 14 14 17.134 14 21C14 21.5523 13.5523 22 13 22C12.4477 22 12 21.5523 12 21C12 16.0294 16.0294 12 21 12C21.5523 12 22 12.4477 22 13C22 13.5523 21.5523 14 21 14ZM21 18C19.3431 18 18 19.3431 18 21C18 21.5523 17.5523 22 17 22C16.4477 22 16 21.5523 16 21C16 18.2386 18.2386 16 21 16C21.5523 16 22 16.4477 22 17C22 17.5523 21.5523 18 21 18ZM20 21C20 20.4477 20.4477 20 21 20H21.01C21.5623 20 22.01 20.4477 22.01 21C22.01 21.5523 21.5623 22 21.01 22H21C20.4477 22 20 21.5523 20 21Z" fill="url(#paint0_linear_146_1600)"/>
<defs>
<linearGradient id="paint0_linear_146_1600" x1="-8.005" y1="12" x2="11.995" y2="32.01" gradientUnits="userSpaceOnUse">
<stop stop-color="#F456FE"/>
<stop offset="1" stop-color="#8D79F9"/>
</linearGradient>
</defs>
</svg>
