<svg width="24" height="24" viewBox="0 0 24 24" fill="none" xmlns="http://www.w3.org/2000/svg">
<path fill-rule="evenodd" clip-rule="evenodd" d="M8.22609 3L8.44445 3C8.99673 3 9.44445 3.44772 9.44445 4C9.44445 4.55229 8.99673 5 8.44445 5H8.26667C7.50343 5 6.99114 5.00078 6.59664 5.03301C6.21381 5.06429 6.03076 5.12013 5.91002 5.18166C5.59641 5.34145 5.34145 5.59641 5.18166 5.91002C5.12013 6.03076 5.06429 6.21381 5.03301 6.59664C5.00078 6.99114 5 7.50343 5 8.26667V8.44445C5 8.99673 4.55229 9.44445 4 9.44445C3.44772 9.44445 3 8.99673 3 8.44445L3 8.22609C2.99999 7.51388 2.99997 6.91942 3.03965 6.43377C3.08104 5.92726 3.17052 5.45172 3.39964 5.00204C3.75118 4.31211 4.31211 3.75118 5.00204 3.39964C5.45172 3.17052 5.92726 3.08104 6.43377 3.03965C6.91942 2.99997 7.51388 2.99999 8.22609 3ZM17.4034 5.03301C17.0089 5.00078 16.4966 5 15.7333 5H15.5556C15.0033 5 14.5556 4.55229 14.5556 4C14.5556 3.44772 15.0033 3 15.5556 3L15.7739 3C16.4861 2.99999 17.0806 2.99997 17.5662 3.03965C18.0727 3.08104 18.5483 3.17052 18.998 3.39964C19.6879 3.75118 20.2488 4.31211 20.6004 5.00204C20.8295 5.45172 20.919 5.92726 20.9604 6.43377C21 6.91941 21 7.51387 21 8.22606V8.44445C21 8.99673 20.5523 9.44445 20 9.44445C19.4477 9.44445 19 8.99673 19 8.44445V8.26667C19 7.50343 18.9992 6.99114 18.967 6.59664C18.9357 6.21381 18.8799 6.03076 18.8183 5.91002C18.6586 5.59641 18.4036 5.34145 18.09 5.18166C17.9692 5.12013 17.7862 5.06429 17.4034 5.03301ZM3 12C3 11.4477 3.44772 11 4 11H4.01C4.56229 11 5.01 11.4477 5.01 12C5.01 12.5523 4.56229 13 4.01 13H4C3.44772 13 3 12.5523 3 12ZM7 12C7 11.4477 7.44772 11 8 11H8.01C8.56229 11 9.01 11.4477 9.01 12C9.01 12.5523 8.56229 13 8.01 13H8C7.44772 13 7 12.5523 7 12ZM11 12C11 11.4477 11.4477 11 12 11H12.01C12.5623 11 13.01 11.4477 13.01 12C13.01 12.5523 12.5623 13 12.01 13H12C11.4477 13 11 12.5523 11 12ZM15 12C15 11.4477 15.4477 11 16 11H16.01C16.5623 11 17.01 11.4477 17.01 12C17.01 12.5523 16.5623 13 16.01 13H16C15.4477 13 15 12.5523 15 12ZM19 12C19 11.4477 19.4477 11 20 11H20.01C20.5623 11 21.01 11.4477 21.01 12C21.01 12.5523 20.5623 13 20.01 13H20C19.4477 13 19 12.5523 19 12ZM4 14.5556C4.55229 14.5556 5 15.0033 5 15.5556V15.7333C5 16.4966 5.00078 17.0089 5.03301 17.4034C5.06429 17.7862 5.12013 17.9692 5.18166 18.09C5.34145 18.4036 5.59641 18.6586 5.91002 18.8183C6.03076 18.8799 6.21381 18.9357 6.59664 18.967C6.99114 18.9992 7.50343 19 8.26667 19H8.44445C8.99673 19 9.44445 19.4477 9.44445 20C9.44445 20.5523 8.99673 21 8.44445 21H8.22606C7.51387 21 6.91941 21 6.43377 20.9604C5.92726 20.919 5.45172 20.8295 5.00204 20.6004C4.31211 20.2488 3.75118 19.6879 3.39964 18.998C3.17052 18.5483 3.08104 18.0727 3.03965 17.5662C2.99997 17.0806 2.99999 16.4861 3 15.7739L3 15.5556C3 15.0033 3.44772 14.5556 4 14.5556ZM20 14.5556C20.5523 14.5556 21 15.0033 21 15.5556V15.7739C21 16.4861 21 17.0806 20.9604 17.5662C20.919 18.0727 20.8295 18.5483 20.6004 18.998C20.2488 19.6879 19.6879 20.2488 18.998 20.6004C18.5483 20.8295 18.0727 20.919 17.5662 20.9604C17.0806 21 16.4861 21 15.7739 21H15.5556C15.0033 21 14.5556 20.5523 14.5556 20C14.5556 19.4477 15.0033 19 15.5556 19H15.7333C16.4966 19 17.0089 18.9992 17.4034 18.967C17.7862 18.9357 17.9692 18.8799 18.09 18.8183C18.4036 18.6586 18.6586 18.4036 18.8183 18.09C18.8799 17.9692 18.9357 17.7862 18.967 17.4034C18.9992 17.0089 19 16.4966 19 15.7333V15.5556C19 15.0033 19.4477 14.5556 20 14.5556Z" fill="url(#paint0_linear_146_1584)"/>
<defs>
<linearGradient id="paint0_linear_146_1584" x1="-6.005" y1="12" x2="11.995" y2="30.01" gradientUnits="userSpaceOnUse">
<stop stop-color="#F456FE"/>
<stop offset="1" stop-color="#8D79F9"/>
</linearGradient>
</defs>
</svg>
