<svg width="24" height="24" viewBox="0 0 24 24" fill="none" xmlns="http://www.w3.org/2000/svg">
<path fill-rule="evenodd" clip-rule="evenodd" d="M7.7587 3L20.55 3C21.1023 3 21.55 3.44772 21.55 4C21.55 4.55229 21.1023 5 20.55 5H7.8C6.94342 5 6.36113 5.00078 5.91104 5.03755C5.47262 5.07337 5.24842 5.1383 5.09202 5.21799C4.7157 5.40973 4.40973 5.7157 4.21799 6.09202C4.1383 6.24842 4.07337 6.47262 4.03755 6.91104C4.00078 7.36113 4 7.94342 4 8.8V15.2C4 16.0566 4.00078 16.6389 4.03755 17.089C4.07337 17.5274 4.1383 17.7516 4.21799 17.908C4.40973 18.2843 4.7157 18.5903 5.09202 18.782C5.24842 18.8617 5.47262 18.9266 5.91104 18.9624C6.36113 18.9992 6.94342 19 7.8 19H16.2C17.0566 19 17.6389 18.9992 18.089 18.9624C18.5274 18.9266 18.7516 18.8617 18.908 18.782C19.2843 18.5903 19.5903 18.2843 19.782 17.908C19.8617 17.7516 19.9266 17.5274 19.9624 17.089C19.9992 16.6389 20 16.0566 20 15.2V12.8C20 11.9434 19.9992 11.3611 19.9624 10.911C19.9266 10.4726 19.8617 10.2484 19.782 10.092C19.5903 9.7157 19.2843 9.40973 18.908 9.21799C18.7516 9.1383 18.5274 9.07337 18.089 9.03755C17.6389 9.00078 17.0566 9 16.2 9H6.6C6.04772 9 5.6 8.55229 5.6 8C5.6 7.44772 6.04772 7 6.6 7L16.2413 7C17.0463 6.99999 17.7106 6.99998 18.2518 7.04419C18.8139 7.09012 19.3306 7.18868 19.816 7.43598C20.5686 7.81947 21.1805 8.43139 21.564 9.18404C21.8113 9.66937 21.9099 10.1861 21.9558 10.7482C22 11.2894 22 11.9537 22 12.7587V15.2413C22 16.0463 22 16.7106 21.9558 17.2518C21.9099 17.8139 21.8113 18.3306 21.564 18.816C21.1805 19.5686 20.5686 20.1805 19.816 20.564C19.3306 20.8113 18.8139 20.9099 18.2518 20.9558C17.7106 21 17.0463 21 16.2413 21H7.75868C6.95372 21 6.28936 21 5.74817 20.9558C5.18608 20.9099 4.66937 20.8113 4.18404 20.564C3.43139 20.1805 2.81947 19.5686 2.43597 18.816C2.18868 18.3306 2.09012 17.8139 2.04419 17.2518C1.99998 16.7106 1.99999 16.0463 2 15.2413V8.7587C1.99999 7.95373 1.99998 7.28937 2.04419 6.74817C2.09012 6.18608 2.18868 5.66937 2.43597 5.18404C2.81947 4.43139 3.43139 3.81947 4.18404 3.43597C4.66937 3.18868 5.18608 3.09012 5.74817 3.04419C6.28937 2.99998 6.95373 2.99999 7.7587 3ZM15.0498 14.15C15.0498 13.3492 15.699 12.7 16.4998 12.7C17.3006 12.7 17.9498 13.3492 17.9498 14.15C17.9498 14.9508 17.3006 15.6 16.4998 15.6C15.699 15.6 15.0498 14.9508 15.0498 14.15Z" fill="url(#paint0_linear_146_1592)"/>
<defs>
<linearGradient id="paint0_linear_146_1592" x1="-8" y1="12" x2="9.90055" y2="31.8895" gradientUnits="userSpaceOnUse">
<stop stop-color="#F456FE"/>
<stop offset="1" stop-color="#8D79F9"/>
</linearGradient>
</defs>
</svg>
