<svg width="48" height="48" viewBox="0 0 48 48" fill="none" xmlns="http://www.w3.org/2000/svg">
<path d="M0 24C0 10.7452 10.7452 0 24 0C37.2548 0 48 10.7452 48 24C48 37.2548 37.2548 48 24 48C10.7452 48 0 37.2548 0 24Z" fill="#F68634"/>
<path d="M26.5958 29.4403L30.1824 32.9028C30.9172 33.6106 30.9172 34.7601 30.1824 35.4686C29.4484 36.1771 28.2588 36.1771 27.5255 35.4686L23.9991 32.0661L20.4758 35.4686C20.1084 35.8225 19.627 35.9996 19.1456 35.9996C18.665 35.9996 18.1844 35.8225 17.817 35.4686C17.083 34.7601 17.083 33.6113 17.8162 32.9028L21.4033 29.4403C20.0973 29.1531 18.8378 28.6536 17.6777 27.951C16.7997 27.4167 16.536 26.2972 17.0892 25.449C17.6408 24.5996 18.8009 24.3439 19.6804 24.8783C22.307 26.4732 25.6906 26.4736 28.3187 24.8783C29.1981 24.3439 30.3579 24.5996 30.9107 25.449C31.4639 26.2964 31.1994 27.4167 30.3214 27.951C29.1613 28.6543 27.9018 29.1531 26.5958 29.4403Z" fill="white"/>
<path fill-rule="evenodd" clip-rule="evenodd" d="M17.5679 18.1936C17.5679 21.6079 20.4455 24.3853 23.9838 24.3853C27.5229 24.3853 30.3997 21.6079 30.3997 18.1936C30.3997 14.7781 27.5229 12 23.9838 12C20.4455 12 17.5679 14.7781 17.5679 18.1936ZM26.6403 18.1936C26.6403 16.7795 25.4487 15.6297 23.9838 15.6297C22.52 15.6297 21.3273 16.7795 21.3273 18.1936C21.3273 19.6065 22.52 20.7571 23.9838 20.7571C25.4487 20.7571 26.6403 19.6065 26.6403 18.1936Z" fill="white"/>
</svg>
