<svg width="48" height="48" viewBox="0 0 48 48" fill="none" xmlns="http://www.w3.org/2000/svg">
<path d="M0 24C0 10.7452 10.7452 0 24 0C37.2548 0 48 10.7452 48 24C48 37.2548 37.2548 48 24 48C10.7452 48 0 37.2548 0 24Z" fill="#4C6C91"/>
<path d="M25.2557 31.8762C25.2557 31.8762 25.7177 31.8258 25.9543 31.5763C26.1709 31.3477 26.1634 30.9163 26.1634 30.9163C26.1634 30.9163 26.1346 28.9019 27.0875 28.6044C28.0265 28.3119 29.2323 30.5525 30.512 31.4141C31.4786 32.0655 32.2123 31.9229 32.2123 31.9229L35.6318 31.8762C35.6318 31.8762 37.4198 31.768 36.5721 30.3878C36.502 30.2747 36.0775 29.3664 34.0304 27.5007C31.8855 25.5478 32.1735 25.8636 34.7553 22.485C36.328 20.4275 36.9565 19.1714 36.7599 18.6343C36.5734 18.1206 35.4164 18.257 35.4164 18.257L31.5675 18.2804C31.5675 18.2804 31.282 18.2423 31.0704 18.3664C30.8638 18.4881 30.7298 18.772 30.7298 18.772C30.7298 18.772 30.1213 20.3636 29.3087 21.718C27.5946 24.5744 26.9097 24.7255 26.6292 24.5486C25.9769 24.1344 26.1396 22.8869 26.1396 22.0007C26.1396 19.2317 26.5679 18.0776 25.307 17.7789C24.8888 17.6794 24.5808 17.6142 23.5102 17.6032C22.1367 17.5897 20.9747 17.6081 20.3161 17.924C19.8779 18.1341 19.5398 18.6036 19.7464 18.6307C20.0006 18.6638 20.5766 18.7831 20.8821 19.1911C21.2765 19.7184 21.2627 20.9007 21.2627 20.9007C21.2627 20.9007 21.4894 24.1602 20.7331 24.5645C20.2147 24.8423 19.5035 24.2757 17.9747 21.6836C17.1922 20.3563 16.6012 18.8888 16.6012 18.8888C16.6012 18.8888 16.4872 18.6147 16.2831 18.4672C16.0365 18.289 15.6921 18.2337 15.6921 18.2337L12.0348 18.257C12.0348 18.257 11.4851 18.2718 11.2835 18.5065C11.1045 18.7142 11.2697 19.1456 11.2697 19.1456C11.2697 19.1456 14.1333 25.7223 17.3762 29.0371C20.3499 32.0753 23.7256 31.8762 23.7256 31.8762H25.2557Z" fill="white"/>
</svg>
