<svg width="48" height="48" viewBox="0 0 48 48" fill="none" xmlns="http://www.w3.org/2000/svg">
<path d="M48 24C48 37.2548 37.2548 48 24 48C10.7452 48 0 37.2548 0 24C0 10.7452 10.7452 0 24 0C37.2548 0 48 10.7452 48 24V24Z" fill="white"/>
<path fill-rule="evenodd" clip-rule="evenodd" d="M9.6001 23.9996C9.6001 16.0594 16.0604 9.6001 23.9996 9.6001C31.9398 9.6001 38.4001 16.0594 38.4001 23.9996C38.4001 31.9408 31.9398 38.3991 23.9996 38.3991C16.0604 38.3991 9.6001 31.9398 9.6001 23.9996ZM37.1294 24.5653L37.1294 24.5652C37.1422 24.3775 37.155 24.1903 37.155 23.9996C37.155 19.3048 34.675 15.1873 30.9661 12.8597C30.9287 12.8805 30.8863 12.9064 30.841 12.934C30.6366 13.0587 30.3747 13.2185 30.2607 13.1037C30.1123 12.9553 29.7637 12.7408 29.7637 12.7408C30.0625 12.5416 29.1691 12.2113 29.1691 12.2113L28.1293 12.2946H27.3863C27.321 12.2946 27.2273 12.2742 27.1219 12.2513C26.9861 12.2217 26.8307 12.1879 26.691 12.1879C26.5188 12.1879 26.1745 12.2991 25.9152 12.3828L25.9152 12.3828C25.8043 12.4186 25.7089 12.4494 25.6492 12.4643C25.5714 12.4837 25.4539 12.5353 25.3282 12.5906C25.137 12.6747 24.9266 12.7672 24.8076 12.7672C24.6105 12.7672 24.3116 13.1413 24.3116 13.1413C24.3116 13.1413 23.965 13.7755 24.2639 13.6759C24.5596 13.5763 24.957 13.5712 25.0048 13.7206C25.0293 13.7916 25.0646 13.8851 25.1003 13.9798L25.1003 13.9798L25.1003 13.9799L25.1004 13.98L25.1004 13.9801L25.1004 13.9802L25.1005 13.9802C25.1389 14.082 25.1777 14.185 25.204 14.2624C25.2528 14.4108 25.947 14.4585 25.947 14.4585C25.947 14.4585 26.0466 14.2105 26.195 14.0123C26.3434 13.8141 26.4918 13.5661 26.4918 13.5661C26.4918 13.5661 26.7398 14.0621 26.7896 14.2105C26.8384 14.3599 26.69 14.8051 26.69 14.8051C26.69 14.8051 26.1452 15.1517 25.9958 15.1517C25.8464 15.1517 25.0028 14.4077 25.0028 14.4077C24.706 14.5073 24.458 14.6567 24.458 14.6567C24.1114 15.0044 23.7638 15.3011 23.7638 15.3011C23.7638 15.3011 23.4639 15.4008 23.2668 15.5491C23.1778 15.6157 23.0427 15.6588 22.91 15.7011C22.7468 15.753 22.5873 15.8038 22.5217 15.8957C22.2747 16.2423 22.6173 16.4903 22.6173 16.4903L22.3123 16.8867L22.0999 17.0362L21.3752 17.1856L20.9412 17.2588C20.99 17.4071 20.8934 17.8788 20.8934 17.8788V18.7193C20.8934 18.7193 21.609 18.9175 21.7584 18.9175C21.7801 18.9175 21.8066 18.9186 21.8365 18.9199H21.8365H21.8366H21.8366H21.8366C22.0111 18.9271 22.3039 18.9391 22.474 18.7691C22.6701 18.5709 22.9933 18.1247 23.0919 17.9763C23.1905 17.8279 23.3247 17.6795 23.6235 17.5799C23.7964 17.5223 23.8825 17.4477 23.954 17.3856C24.0048 17.3415 24.0483 17.3038 24.1104 17.2831C24.2598 17.2333 24.8432 17.1337 24.8432 17.1337C24.8432 17.1337 25.1878 17.3828 25.3352 17.4813C25.3522 17.493 25.3555 17.5109 25.3597 17.5335C25.3726 17.604 25.3939 17.7202 25.8647 17.834V18.2264L26.5244 18.1766L26.2255 17.7802L26.1747 17.767L25.6004 17.1856L25.5577 16.7394C25.5577 16.7394 26.1686 17.086 26.3668 17.1856C26.565 17.2842 26.9878 17.581 26.9878 17.581L27.2816 18.2741L27.678 18.758C27.5448 18.5923 27.2165 18.1247 27.7288 18.1247C27.7288 18.1247 28.2004 18.1745 28.3488 18.1247C28.4982 18.0759 28.6324 18.0272 28.8296 17.9276C28.9263 17.8789 28.91 17.7715 28.8908 17.6454C28.8707 17.5132 28.8475 17.3603 28.9485 17.2333C29.1477 16.9853 29.4059 16.8857 29.5543 16.8369C29.7037 16.7871 30.2027 16.5391 30.2027 16.5391L30.7516 16.6387C30.5046 16.8369 30.2088 17.1337 30.406 17.0849C30.6042 17.0351 31.0525 17.2831 31.2496 17.4315C31.4478 17.5799 31.2995 17.9276 31.2995 17.9276C31.2995 17.9276 30.7547 17.8777 30.4081 17.8279C30.0604 17.7792 29.5146 17.8777 29.5146 17.8777L29.0694 18.1247C29.0694 18.1247 28.7716 18.2243 28.8214 18.4713C28.8702 18.7193 29.0694 19.0182 29.2676 19.2651C29.312 19.3211 29.3539 19.3795 29.3939 19.4353L29.394 19.4355L29.3941 19.4355C29.532 19.6277 29.6474 19.7885 29.7616 19.7114C29.9121 19.6117 30.4081 19.315 30.4081 19.315C30.4081 19.315 30.3074 19.6615 30.3583 19.9096C30.4081 20.1565 30.4081 20.5042 30.4081 20.5042C30.4081 20.5042 29.9121 20.5042 30.0604 20.6048C30.172 20.6779 30.3202 20.9111 30.4232 21.0731C30.4562 21.1251 30.4846 21.1697 30.5056 21.1994C31.0016 21.8926 32.0424 23.4294 32.1421 23.6276C32.1835 23.7121 32.1992 23.8151 32.2148 23.9167C32.2359 24.0545 32.2566 24.1895 32.3403 24.272C32.637 24.5698 33.2316 24.272 33.38 24.1734C33.4266 24.143 33.5068 24.0977 33.5995 24.0454C33.8044 23.9298 34.0707 23.7795 34.1728 23.6774L34.1744 23.6758L34.1745 23.6758L34.1745 23.6757L34.1746 23.6756L34.1746 23.6756C34.2331 23.618 34.261 23.5905 34.2915 23.5662C34.3194 23.5441 34.3495 23.5248 34.407 23.4877C34.4462 23.4624 34.4983 23.4289 34.5713 23.3806C34.8681 23.1824 35.0663 23.033 34.9179 22.8846C34.7695 22.7362 34.4727 22.1904 34.4727 22.1904C34.0245 22.29 33.5793 22.042 33.5793 21.8936C33.5793 21.7452 33.1829 21.1506 33.1829 21.1506C33.1829 21.1506 33.2316 21.052 33.5793 21.2492C33.7111 21.3241 33.8354 21.4276 33.9551 21.5272C34.152 21.6911 34.3367 21.8448 34.5225 21.8448C34.7973 21.8448 34.944 21.9293 35.2403 22.1L35.3143 22.1426C35.506 22.2514 35.6375 22.3756 35.7499 22.4819C35.8413 22.5683 35.9201 22.6427 36.0085 22.6874C36.2067 22.787 36.5045 23.1834 36.5045 23.1834C36.5045 23.1834 36.8023 23.8776 36.8511 24.0768C36.873 24.1624 36.9404 24.3221 37.0102 24.4877L37.0103 24.4877C37.0474 24.5758 37.0853 24.6655 37.1174 24.7467C37.1211 24.6861 37.1252 24.6256 37.1294 24.5653ZM13.5021 16.2423C13.5021 16.3036 13.4762 16.3506 13.4485 16.4009C13.3866 16.5132 13.3154 16.6424 13.5021 16.9864C13.8477 17.6308 13.5509 17.9286 13.5509 17.9286C13.5509 17.9286 12.7073 18.5232 12.5589 18.6228C12.4105 18.7224 12.0141 19.2672 12.2611 19.1178C12.5091 18.9694 12.8059 18.821 12.5589 19.2174C12.4858 19.3345 12.3954 19.473 12.3019 19.6165L12.3019 19.6165L12.3018 19.6166C12.078 19.9599 11.8356 20.3316 11.7661 20.5072C11.7302 20.5977 11.6418 20.7338 11.5439 20.8847C11.3724 21.1488 11.1715 21.4581 11.1715 21.6476C11.1715 21.7778 11.1336 21.9648 11.0951 22.1549C11.0456 22.3997 10.995 22.6494 11.0231 22.789C11.0566 22.9618 10.9468 23.4711 10.8604 23.6804C10.9275 20.8934 11.8657 18.325 13.4147 16.224C13.4655 16.2291 13.5021 16.2423 13.5021 16.2423ZM19.2956 11.7264C17.7283 12.3302 16.3074 13.2226 15.0948 14.3417L15.0932 14.346L15.0932 14.346C15.0714 14.4023 15.0508 14.4558 15.0369 14.5073C14.9871 14.7065 15.3855 14.5571 15.3855 14.5571L15.8307 14.7553L16.3765 14.5571C16.3765 14.5571 16.5259 14.2593 16.8715 14.0123C17.1206 13.8339 17.1661 13.7572 17.2265 13.6556C17.2504 13.6153 17.2767 13.5712 17.3187 13.5153C17.3922 13.4177 17.3929 13.417 17.4529 13.357C17.5141 13.2958 17.6371 13.1728 17.9621 12.8221C18.6075 12.1269 18.9541 12.1279 18.9541 12.1279C18.9541 12.1279 19.1411 11.9246 19.2956 11.7264ZM21.0368 15.4983L20.8396 15.2015L21.0368 14.7553L21.5145 14.9464V14.0611L21.9708 13.8141L22.35 14.3589L22.9334 15.0044L22.5461 15.3011L21.5134 15.4993V14.9739L21.0368 15.4983ZM27.9778 20.307C27.9778 20.307 27.5987 20.0671 27.4828 20.1586C26.9868 20.556 25.8454 20.307 25.6004 20.2063C25.3514 20.1067 25.203 19.9594 25.203 19.8099C25.203 19.6605 24.9794 18.9419 24.9794 18.9419C24.9794 18.9419 24.4956 19.0283 24.3472 19.0283C24.1988 19.0283 23.8085 18.8728 23.8085 18.8728C23.8085 18.8728 23.3145 18.9196 23.1163 19.0192C22.9202 19.1188 22.5238 19.2662 22.3754 19.316C22.227 19.3658 21.8316 19.4146 21.8316 19.4146C21.3854 19.2164 21.0388 19.7114 20.9382 19.9096C20.8993 19.9889 20.8444 20.0522 20.7923 20.1123C20.7135 20.2031 20.6414 20.2863 20.6414 20.4056C20.6414 20.6048 20.2938 20.9016 20.1454 21.0002C20.1166 21.0196 20.0728 21.0465 20.0196 21.0791C19.8003 21.2136 19.4232 21.4449 19.3038 21.6446C19.1544 21.8926 19.006 22.1904 18.9562 22.4384C18.9074 22.6864 18.9074 22.8846 18.9074 23.2312C18.9074 23.355 18.901 23.46 18.8951 23.5575L18.8951 23.5575C18.8845 23.7329 18.8754 23.8838 18.9074 24.0758C18.9551 24.3716 19.4522 25.1156 19.6494 25.3646C19.8486 25.6126 20.0966 25.9094 20.3456 26.0578C20.5916 26.2072 20.9402 26.504 20.9402 26.504C20.9402 26.504 21.1374 26.8008 21.5328 26.6524C21.6987 26.5902 21.864 26.5539 22.0257 26.5184L22.0258 26.5184L22.0258 26.5184C22.2524 26.4686 22.4718 26.4205 22.6752 26.3048C23.0228 26.1076 23.5676 25.8586 23.5676 26.1564C23.5676 26.4542 23.7648 26.6534 24.0626 26.5538C24.1099 26.538 24.1622 26.5184 24.2165 26.4981C24.504 26.3907 24.8475 26.2623 24.8056 26.5538C24.7746 26.7747 24.8232 27.0351 24.8628 27.2469C24.8855 27.3684 24.9052 27.4739 24.9052 27.5469C24.9052 27.5866 24.9032 27.6264 24.9011 27.6659C24.8932 27.8216 24.8854 27.9723 25.0038 28.0906C25.0501 28.137 25.1208 28.1931 25.1961 28.2529C25.3621 28.3847 25.5506 28.5344 25.5506 28.6365C25.5506 28.7838 25.5984 29.2798 25.698 29.4791C25.7976 29.6783 25.8962 29.9751 25.7966 30.1733C25.698 30.3715 25.4978 30.9173 25.4978 30.9173C25.4978 30.9173 25.3941 31.3625 25.4439 31.5109C25.4937 31.6613 25.5852 31.8585 25.8332 32.1065C25.9762 32.2489 26.0151 32.4086 26.0511 32.5563C26.0775 32.6647 26.1023 32.7666 26.1656 32.8505C26.315 33.0487 26.4654 33.6433 26.4654 33.6433L26.4878 34.1393V34.5845C26.4878 34.5845 27.5814 34.4361 27.7796 34.3863C27.9778 34.3365 28.7533 33.9889 28.9505 33.7917C29.0393 33.7024 29.0806 33.6231 29.1212 33.5451C29.1713 33.449 29.2203 33.3547 29.3561 33.2459C29.6051 33.0487 30.0564 32.7001 30.0564 32.7001L30.0076 31.9571L30.6052 31.1653L31.0525 30.7181C31.0525 30.7181 31.4478 30.1733 31.3991 29.9751C31.3503 29.7769 31.2507 28.7849 31.2507 28.7849C31.2507 28.7849 31.4499 28.3386 31.5983 28.1404C31.6515 28.0685 31.6857 27.9903 31.7217 27.908C31.7855 27.7624 31.8548 27.6041 32.0445 27.4462C32.2961 27.2376 32.4758 26.9927 32.6157 26.8022L32.6157 26.8021L32.6162 26.8014C32.6417 26.7667 32.6659 26.7338 32.6889 26.7032L32.7202 26.6614C32.8758 26.4536 33.1416 26.0988 33.2337 25.9602C33.3323 25.8108 33.4329 25.3656 33.4329 25.3656L32.5385 25.514C32.3654 25.2248 32.0064 24.7338 31.7078 24.3253L31.7077 24.3252L31.7077 24.3251C31.4942 24.0331 31.3115 23.7832 31.2496 23.6794C31.1013 23.4314 30.9529 22.9354 30.9031 22.7372C30.8717 22.613 30.7616 22.3499 30.6718 22.1352L30.6717 22.1351L30.6717 22.135C30.619 22.009 30.5732 21.8997 30.5544 21.8448C30.5188 21.7365 30.3251 21.4696 30.1844 21.2756C30.1322 21.2037 30.0874 21.1419 30.0604 21.1018C30.0023 21.0146 29.8601 20.9444 29.7121 20.8713C29.6065 20.8192 29.498 20.7656 29.415 20.7034C29.2168 20.555 27.9778 20.307 27.9778 20.307ZM33.1839 29.8765C33.1839 30.0249 33.1341 30.4223 33.0843 30.6205C33.0635 30.7 33.0353 30.8036 33.0059 30.9118L33.0058 30.9123C32.9619 31.0736 32.9153 31.2451 32.8861 31.3625C32.8363 31.5617 32.5883 31.9581 32.4409 32.0577C32.3812 32.0978 32.3052 32.1699 32.2261 32.245L32.2261 32.245C32.1086 32.3566 31.9842 32.4747 31.8961 32.5039C31.7477 32.5537 31.6471 32.1563 31.6969 31.9581C31.7477 31.7599 31.9947 31.2151 31.9947 31.2151C31.9947 31.2151 32.0445 30.9183 32.0933 30.7191C32.1441 30.5219 32.7387 30.2739 32.7387 30.2739L33.136 29.53C33.136 29.531 33.1375 29.5382 33.1401 29.5503L33.1401 29.5503C33.1516 29.6048 33.1839 29.7578 33.1839 29.8765ZM11.4683 27.1007C11.3392 26.9858 11.2477 26.939 11.1837 26.9228C11.7783 29.5319 13.1494 31.8412 15.0399 33.6067C15.1561 33.6385 15.2257 33.6129 15.2995 33.5858C15.3528 33.5661 15.4083 33.5457 15.4851 33.5457C15.6813 33.5457 15.9801 33.2967 15.9801 33.2967L15.7809 32.7021L15.9801 31.9591L16.2281 31.2659C16.2281 31.2659 16.2281 30.7699 15.9801 30.7191C15.8501 30.6935 15.6657 30.5588 15.4981 30.4363C15.3459 30.3251 15.2076 30.2241 15.1365 30.2241C14.9881 30.2241 14.7401 30.1255 14.5917 30.0259C14.5418 29.9924 14.475 29.959 14.4047 29.9238C14.2659 29.8543 14.113 29.7778 14.0469 29.6793C13.9473 29.5289 13.7979 29.2829 13.6993 29.0339C13.6823 28.991 13.6697 28.9556 13.6585 28.9239C13.6046 28.7717 13.5821 28.7083 13.2531 28.3397C13.015 28.0716 12.956 28.0007 12.8818 27.9541C12.8327 27.9233 12.777 27.9031 12.6585 27.8437C12.5155 27.7719 12.4182 27.7009 12.3283 27.6352C12.231 27.5642 12.1425 27.4996 12.0141 27.4473C11.7661 27.3466 11.6553 27.2633 11.4683 27.1007Z" fill="#228CC4"/>
</svg>
