<svg width="34" height="34" viewBox="0 0 34 34" xmlns="http://www.w3.org/2000/svg" fill="white">
<path d="M17.7841 9.17177C17.2706 9.03275 16.7295 9.03275 16.216 9.17177C15.6815 9.3165 15.1631 9.69568 13.6848 10.8455L11.0848 12.8677C10.1333 13.6077 9.8139 13.8672 9.5881 14.1725C9.37111 14.4658 9.20946 14.7963 9.1111 15.1477C9.00875 15.5134 9.00006 15.9248 9.00006 17.1302V19.6001C9.00006 20.7367 9.00084 21.529 9.05123 22.1458C9.10068 22.751 9.19285 23.0987 9.32704 23.362C9.61466 23.9265 10.0736 24.3855 10.6381 24.6731C10.9014 24.8073 11.2491 24.8994 11.8543 24.9489C12.4711 24.9993 13.2635 25.0001 14.4001 25.0001H19.6001C20.7367 25.0001 21.529 24.9993 22.1458 24.9489C22.751 24.8994 23.0987 24.8073 23.362 24.6731C23.9265 24.3855 24.3855 23.9265 24.6731 23.362C24.8073 23.0987 24.8994 22.751 24.9489 22.1458C24.9993 21.529 25.0001 20.7367 25.0001 19.6001V17.1302C25.0001 15.9248 24.9914 15.5134 24.889 15.1477C24.7907 14.7963 24.629 14.4658 24.412 14.1725C24.1862 13.8672 23.8668 13.6077 22.9153 12.8677L20.3153 10.8455C18.837 9.69568 18.3186 9.3165 17.7841 9.17177ZM15.6933 7.24128C16.5491 7.00958 17.451 7.00958 18.3068 7.24128C19.2801 7.5048 20.1341 8.1697 21.3731 9.13433C21.429 9.17787 21.4857 9.22202 21.5432 9.26677L24.1432 11.289C24.1792 11.3169 24.2146 11.3445 24.2496 11.3717C25.0539 11.9969 25.6104 12.4293 26.02 12.9832C26.3816 13.4721 26.6511 14.023 26.815 14.6086C27.0007 15.272 27.0004 15.9767 27.0001 16.9954C27.0001 17.0398 27.0001 17.0847 27.0001 17.1302V19.6429C27.0001 20.7267 27.0001 21.6008 26.9422 22.3087C26.8827 23.0375 26.7569 23.6777 26.4551 24.27C25.9757 25.2108 25.2108 25.9757 24.27 26.4551C23.6777 26.7569 23.0375 26.8827 22.3087 26.9422C21.6008 27.0001 20.7267 27.0001 19.6429 27.0001H14.3572C13.2735 27.0001 12.3993 27.0001 11.6914 26.9422C10.9626 26.8827 10.3224 26.7569 9.73011 26.4551C8.7893 25.9757 8.02439 25.2108 7.54503 24.27C7.24324 23.6777 7.11743 23.0375 7.05788 22.3087C7.00004 21.6008 7.00005 20.7267 7.00006 19.6429L7.00006 17.1302C7.00006 17.0847 7.00004 17.0398 7.00003 16.9954C6.99969 15.9767 6.99945 15.272 7.18513 14.6086C7.34906 14.023 7.61847 13.4721 7.98013 12.9832C8.38974 12.4293 8.94617 11.9969 9.75051 11.3717C9.7855 11.3445 9.82096 11.3169 9.8569 11.289L12.4569 9.26677C12.5144 9.22201 12.5711 9.17786 12.6271 9.13432C13.8661 8.16969 14.72 7.5048 15.6933 7.24128ZM13.0001 22.0001C13.0001 21.4478 13.4478 21.0001 14.0001 21.0001H20.0001C20.5523 21.0001 21.0001 21.4478 21.0001 22.0001C21.0001 22.5523 20.5523 23.0001 20.0001 23.0001H14.0001C13.4478 23.0001 13.0001 22.5523 13.0001 22.0001Z"/>
</svg>
