<svg width="34" height="34" viewBox="0 0 34 34" xmlns="http://www.w3.org/2000/svg" fill="white">
<path fill-rule="evenodd" clip-rule="evenodd" d="M8.99999 9C8.99999 7.89543 9.89542 7 11 7C12.1046 7 13 7.89543 13 9C13 10.1046 12.1046 11 11 11C9.89542 11 8.99999 10.1046 8.99999 9ZM18.5681 8H24.4319C24.6843 7.99997 24.9301 7.99994 25.1382 8.01695C25.3668 8.03562 25.6365 8.07969 25.908 8.21799C26.2843 8.40973 26.5903 8.7157 26.782 9.09202C26.9203 9.36344 26.9644 9.63318 26.983 9.86177C27.0001 10.0699 27 10.3157 27 10.5681V11.4319C27 11.6843 27.0001 11.9301 26.983 12.1382C26.9644 12.3668 26.9203 12.6366 26.782 12.908C26.5903 13.2843 26.2843 13.5903 25.908 13.782C25.6365 13.9203 25.3668 13.9644 25.1382 13.9831C24.9301 14.0001 24.6843 14 24.4319 14H18.5681C18.3157 14 18.0699 14.0001 17.8618 13.9831C17.6332 13.9644 17.3634 13.9203 17.092 13.782C16.7157 13.5903 16.4097 13.2843 16.218 12.908C16.0797 12.6366 16.0356 12.3668 16.0169 12.1382C15.9999 11.9301 16 11.6843 16 11.4319C16 11.4213 16 11.4106 16 11.4V10.6C16 10.5894 16 10.5787 16 10.5681C16 10.3157 15.9999 10.0699 16.0169 9.86177C16.0356 9.63318 16.0797 9.36344 16.218 9.09202C16.4097 8.7157 16.7157 8.40973 17.092 8.21799C17.3634 8.07969 17.6332 8.03562 17.8618 8.01695C18.0699 7.99994 18.3157 7.99997 18.5681 8ZM18.0114 10.0114C18.0111 10.0156 18.0107 10.02 18.0103 10.0246C18.0008 10.1412 18 10.3035 18 10.6V11.4C18 11.6965 18.0008 11.8588 18.0103 11.9754C18.0107 11.98 18.0111 11.9844 18.0114 11.9886C18.0156 11.9889 18.02 11.9893 18.0246 11.9897C18.1412 11.9992 18.3035 12 18.6 12H24.4C24.6965 12 24.8588 11.9992 24.9754 11.9897C24.98 11.9893 24.9844 11.9889 24.9885 11.9885C24.9889 11.9844 24.9893 11.98 24.9897 11.9754C24.9992 11.8588 25 11.6965 25 11.4V10.6C25 10.3035 24.9992 10.1412 24.9897 10.0246C24.9893 10.02 24.9889 10.0156 24.9885 10.0114C24.9844 10.0111 24.98 10.0107 24.9754 10.0103C24.8588 10.0008 24.6965 10 24.4 10H18.6C18.3035 10 18.1412 10.0008 18.0246 10.0103C18.02 10.0107 18.0156 10.0111 18.0114 10.0114ZM11 14C9.85499 14 9.11607 14.6554 8.97046 15.2412C8.83724 15.7772 8.29475 16.1037 7.75877 15.9705C7.2228 15.8372 6.8963 15.2948 7.02952 14.7588C7.45118 13.0624 9.183 12 11 12C12.817 12 14.5488 13.0624 14.9705 14.7588C15.1037 15.2948 14.7772 15.8372 14.2412 15.9705C13.7052 16.1037 13.1627 15.7772 13.0295 15.2412C12.8839 14.6554 12.145 14 11 14ZM8.99999 20C8.99999 18.8954 9.89542 18 11 18C12.1046 18 13 18.8954 13 20C13 21.1046 12.1046 22 11 22C9.89542 22 8.99999 21.1046 8.99999 20ZM18.5681 19H24.4319C24.6843 19 24.9301 18.9999 25.1382 19.0169C25.3668 19.0356 25.6365 19.0797 25.908 19.218C26.2843 19.4097 26.5903 19.7157 26.782 20.092C26.9203 20.3634 26.9644 20.6332 26.983 20.8618C27.0001 21.0699 27 21.3157 27 21.5681V22.4319C27 22.6843 27.0001 22.9301 26.983 23.1382C26.9644 23.3668 26.9203 23.6366 26.782 23.908C26.5903 24.2843 26.2843 24.5903 25.908 24.782C25.6365 24.9203 25.3668 24.9644 25.1382 24.9831C24.9301 25.0001 24.6843 25 24.4319 25H18.5681C18.3157 25 18.0699 25.0001 17.8618 24.9831C17.6332 24.9644 17.3634 24.9203 17.092 24.782C16.7157 24.5903 16.4097 24.2843 16.218 23.908C16.0797 23.6366 16.0356 23.3668 16.0169 23.1382C15.9999 22.9301 16 22.6843 16 22.4319V21.5681C16 21.3157 15.9999 21.0699 16.0169 20.8618C16.0356 20.6332 16.0797 20.3634 16.218 20.092C16.4097 19.7157 16.7157 19.4097 17.092 19.218C17.3634 19.0797 17.6332 19.0356 17.8618 19.0169C18.0699 18.9999 18.3157 19 18.5681 19ZM18.0114 21.0114C18.0111 21.0156 18.0107 21.02 18.0103 21.0246C18.0008 21.1412 18 21.3035 18 21.6V22.4C18 22.6965 18.0008 22.8588 18.0103 22.9754C18.0107 22.98 18.0111 22.9844 18.0114 22.9886C18.0156 22.9889 18.02 22.9893 18.0246 22.9897C18.1412 22.9992 18.3035 23 18.6 23H24.4C24.6965 23 24.8588 22.9992 24.9754 22.9897C24.98 22.9893 24.9844 22.9889 24.9885 22.9885C24.9889 22.9844 24.9893 22.98 24.9897 22.9754C24.9992 22.8588 25 22.6965 25 22.4V21.6C25 21.3035 24.9992 21.1412 24.9897 21.0246C24.9893 21.02 24.9889 21.0156 24.9885 21.0114C24.9844 21.0111 24.98 21.0107 24.9754 21.0103C24.8588 21.0008 24.6965 21 24.4 21H18.6C18.3035 21 18.1412 21.0008 18.0246 21.0103C18.02 21.0107 18.0156 21.0111 18.0114 21.0114ZM11 25C9.85499 25 9.11607 25.6554 8.97046 26.2412C8.83724 26.7772 8.29475 27.1037 7.75877 26.9705C7.2228 26.8372 6.8963 26.2948 7.02952 25.7588C7.45118 24.0624 9.183 23 11 23C12.817 23 14.5488 24.0624 14.9705 25.7588C15.1037 26.2948 14.7772 26.8372 14.2412 26.9705C13.7052 27.1037 13.1627 26.7772 13.0295 26.2412C12.8839 25.6554 12.145 25 11 25Z"/>
</svg>
