<svg width="34" height="34" viewBox="0 0 34 34" xmlns="http://www.w3.org/2000/svg" fill="white">
<path fill-rule="evenodd" clip-rule="evenodd" d="M17 9C12.5817 9 9 12.5817 9 17C9 19.2226 9.90634 21.2334 11.3696 22.6832C12.2942 20.5118 14.4746 19 17 19C19.5254 19 21.7058 20.5118 22.6304 22.6832C24.0937 21.2334 25 19.2226 25 17C25 12.5817 21.4183 9 17 9ZM20.9602 23.9526C20.4912 22.2628 18.9055 21 17 21C15.0945 21 13.5088 22.2628 13.0398 23.9526C14.2074 24.6191 15.5592 25 17 25C18.4408 25 19.7926 24.6191 20.9602 23.9526ZM7 17C7 11.4772 11.4772 7 17 7C22.5228 7 27 11.4772 27 17C27 22.5228 22.5228 27 17 27C11.4772 27 7 22.5228 7 17ZM17 14C16.4477 14 16 14.4477 16 15C16 15.5523 16.4477 16 17 16C17.5523 16 18 15.5523 18 15C18 14.4477 17.5523 14 17 14ZM14 15C14 13.3431 15.3431 12 17 12C18.6569 12 20 13.3431 20 15C20 16.6569 18.6569 18 17 18C15.3431 18 14 16.6569 14 15Z"/>
</svg>
