<svg width="34" height="34" viewBox="0 0 34 34" xmlns="http://www.w3.org/2000/svg">
<path d="M8.1588 17.1498C1.43517 13.2097 3.06514 8.94127 4.72058 7.29956C3.1925 7.29956 -1.91937 12.9304 3.27732 19.8018C7.86166 25.8635 14.0061 29.6962 24.2038 28.8943C33.8393 28.1366 36.0466 15.6344 32.2263 11.467C31.8443 23.5903 16.5633 22.0749 8.1588 17.1498Z"/>
<path d="M5.86667 7.29956C3.11609 10.6335 5.73933 13.7401 7.39477 14.8767C8.92286 11.8458 13.1251 9.19384 20.3836 10.3304C19.2375 8.43613 9.30489 3.13215 5.86667 7.29956Z"/>
<path d="M24.2038 13.3613C25.7319 16.9983 21.7843 19.1704 19.6195 19.8018C31.8443 19.0441 31.4623 12.2247 31.0803 10.3304C30.6983 8.43613 25.8168 4.64757 11.2999 5.02643C16.2662 5.78414 22.2937 8.81499 24.2038 13.3613Z"/>
</svg>
