<svg width="34" height="34" viewBox="0 0 34 34" xmlns="http://www.w3.org/2000/svg" fill="white">
    <path fill-rule="evenodd" clip-rule="evenodd" d="M16 9C12.134 9 9 12.134 9 16C9 19.866 12.134 23 16 23C19.866 23 23 19.866 23 16C23 12.134 19.866 9 16 9ZM7 16C7 11.0294 11.0294 7 16 7C20.9706 7 25 11.0294 25 16C25 18.1242 24.2641 20.0765 23.0334 21.6159L26.7074 25.2932C27.0978 25.6839 27.0975 26.3171 26.7068 26.7074C26.3161 27.0978 25.6829 27.0975 25.2926 26.7068L21.6195 23.0304C20.0796 24.2629 18.1259 25 16 25C11.0294 25 7 20.9706 7 16ZM15 11C15 10.4477 15.4477 10 16 10C19.3137 10 22 12.6863 22 16C22 16.5523 21.5523 17 21 17C20.4477 17 20 16.5523 20 16C20 13.7909 18.2091 12 16 12C15.4477 12 15 11.5523 15 11Z"/>
</svg>
