<svg width="35" height="35" viewBox="0 0 35 35" fill="none" xmlns="http://www.w3.org/2000/svg">
<path d="M31.214 26.717C30.7149 27.8699 30.1242 28.9312 29.4398 29.9069C28.5069 31.2371 27.743 32.1578 27.1543 32.6691C26.2417 33.5083 25.264 33.9381 24.217 33.9625C23.4653 33.9625 22.5589 33.7487 21.5037 33.3148C20.4451 32.8829 19.4723 32.6691 18.5827 32.6691C17.6498 32.6691 16.6492 32.8829 15.579 33.3148C14.5071 33.7487 13.6437 33.9748 12.9835 33.9972C11.9794 34.0399 10.9787 33.5979 9.97975 32.6691C9.34217 32.113 8.5447 31.1597 7.58936 29.8091C6.56435 28.367 5.72165 26.6946 5.06147 24.788C4.35443 22.7286 4 20.7344 4 18.8038C4 16.5922 4.47787 14.6848 5.43505 13.0864C6.18731 11.8025 7.18807 10.7897 8.44061 10.0462C9.69315 9.30272 11.0465 8.92384 12.504 8.8996C13.3014 8.8996 14.3472 9.14628 15.6468 9.63108C16.9427 10.1175 17.7749 10.3642 18.1397 10.3642C18.4124 10.3642 19.3368 10.0757 20.9038 9.50071C22.3858 8.96743 23.6365 8.74662 24.6611 8.8336C27.4375 9.05767 29.5233 10.1521 30.9105 12.1239C28.4274 13.6284 27.1991 15.7357 27.2236 18.439C27.246 20.5446 28.0098 22.2968 29.5111 23.688C30.1914 24.3338 30.9512 24.8328 31.7966 25.1873C31.6133 25.7189 31.4197 26.2281 31.214 26.717ZM24.8464 1.66019C24.8464 3.31056 24.2435 4.85152 23.0417 6.27781C21.5913 7.97339 19.8371 8.95317 17.9348 8.79856C17.9105 8.60057 17.8965 8.39219 17.8965 8.17321C17.8965 6.58885 18.5862 4.89327 19.811 3.50691C20.4225 2.80497 21.2002 2.22131 22.1433 1.75572C23.0844 1.29708 23.9746 1.04343 24.8118 1C24.8362 1.22063 24.8464 1.44129 24.8464 1.66019Z" fill="white"/>
</svg>
