<svg width="18" height="17" viewBox="0 0 18 17" fill="none" xmlns="http://www.w3.org/2000/svg">
<path fill-rule="evenodd" clip-rule="evenodd" d="M7.41757 0.498802C7.67838 0.173995 8.07257 -0.00995761 8.48515 0.000416378C8.84692 0.00951864 9.12014 0.193534 9.25772 0.292931C9.40438 0.398885 9.57132 0.544183 9.73687 0.688269C9.74498 0.69533 9.75309 0.702389 9.7612 0.70944L17.2976 7.26583L17.2977 7.26594L17.3151 7.28112C17.4081 7.36192 17.5159 7.45574 17.6028 7.54561C17.7012 7.64738 17.8388 7.80885 17.9213 8.04159L17.9216 8.04249C18.0261 8.33828 18.0261 8.66171 17.9216 8.9575L17.9213 8.9584C17.8388 9.19114 17.7012 9.35261 17.6028 9.45438C17.5159 9.54425 17.4081 9.63807 17.3152 9.71887L17.2977 9.73406L17.2976 9.73416L9.7612 16.2906L9.76117 16.2906L9.73685 16.3118C9.57131 16.4558 9.40438 16.6011 9.25772 16.7071C9.12013 16.8065 8.84691 16.9905 8.48511 16.9996L8.48498 16.9996C8.07264 17.0099 7.67848 16.8261 7.41761 16.5012C7.18895 16.2165 7.14883 15.8861 7.13365 15.7155C7.11746 15.5335 7.1175 15.3103 7.11754 15.089L7.11754 12.2894C6.27927 12.4365 5.46272 12.7006 4.69161 13.0761C3.48934 13.6615 2.42594 14.5037 1.57426 15.545C1.33481 15.8378 0.940236 15.9468 0.587616 15.8176C0.234997 15.6884 0 15.3488 0 14.9683L1.01817e-07 14.4151C0.00120765 12.0486 0.860811 9.76536 2.41478 8.00098C3.67139 6.57425 5.31093 5.56763 7.11754 5.09429V1.94353C7.11754 1.93269 7.11754 1.92185 7.11754 1.911C7.1175 1.68965 7.11746 1.46645 7.13365 1.28449C7.14883 1.11381 7.18896 0.783537 7.41755 0.498834L7.41757 0.498802ZM8.89693 2.33623V5.82222C8.89693 6.2609 8.5863 6.63613 8.16055 6.71173C6.45786 7.01406 4.89946 7.88978 3.74138 9.20463C2.86953 10.1945 2.2667 11.3854 1.97675 12.6608C2.58034 12.1906 3.23198 11.7837 3.92197 11.4477C5.18578 10.8324 6.55195 10.4679 7.94702 10.3718C8.19287 10.3549 8.43463 10.4422 8.61468 10.613C8.79473 10.7837 8.89693 11.0226 8.89693 11.2728V14.6638L15.982 8.5L8.89693 2.33623Z" fill="white"/>
</svg>
