<svg width="34" height="34" viewBox="0 0 34 34" fill="none" xmlns="http://www.w3.org/2000/svg">
<path d="M9.91732 11.3333V7.08325C9.91732 4.73604 11.8201 2.83325 14.1673 2.83325C16.5145 2.83325 18.4173 4.73604 18.4173 7.08325V11.2985M25.5007 22.6666C25.5007 25.0138 23.5979 26.9166 21.2507 26.9166C18.9034 26.9166 17.0007 25.0138 17.0007 22.6666M5.66732 26.9166C4.10251 26.9166 2.83398 25.6481 2.83398 24.0833V14.1666C2.83398 12.6018 4.10251 11.3333 5.66732 11.3333H22.6673C24.2321 11.3333 25.5007 12.6018 25.5007 14.1666M14.734 31.1666H27.7673C28.9574 31.1666 29.5525 31.1666 30.007 30.935C30.4069 30.7312 30.732 30.4062 30.9357 30.0063C31.1673 29.5518 31.1673 28.9567 31.1673 27.7666V21.8166C31.1673 20.6265 31.1673 20.0314 30.9357 19.5769C30.732 19.177 30.4069 18.8519 30.007 18.6482C29.5525 18.4166 28.9574 18.4166 27.7673 18.4166H14.734C13.5439 18.4166 12.9488 18.4166 12.4943 18.6482C12.0944 18.8519 11.7693 19.177 11.5656 19.5769C11.334 20.0314 11.334 20.6265 11.334 21.8166V27.7666C11.334 28.9567 11.334 29.5518 11.5656 30.0063C11.7693 30.4062 12.0944 30.7312 12.4943 30.935C12.9488 31.1666 13.5439 31.1666 14.734 31.1666Z" stroke="#07E092" stroke-width="2.83333" stroke-linecap="round" stroke-linejoin="round"/>
</svg>
