<svg width="24" height="24" viewBox="0 0 24 24" fill="none" xmlns="http://www.w3.org/2000/svg">
<path d="M7 8V5C7 3.34315 8.34315 2 10 2C11.6569 2 13 3.34315 13 5V7.97545M18 16C18 17.6569 16.6569 19 15 19C13.3431 19 12 17.6569 12 16M4 19C2.89543 19 2 18.1046 2 17V10C2 8.89543 2.89543 8 4 8H16C17.1046 8 18 8.89543 18 10M10.4 22H19.6C20.4401 22 20.8601 22 21.181 21.8365C21.4632 21.6927 21.6927 21.4632 21.8365 21.181C22 20.8601 22 20.4401 22 19.6V15.4C22 14.5599 22 14.1399 21.8365 13.819C21.6927 13.5368 21.4632 13.3073 21.181 13.1635C20.8601 13 20.4401 13 19.6 13H10.4C9.55992 13 9.13988 13 8.81901 13.1635C8.53677 13.3073 8.3073 13.5368 8.16349 13.819C8 14.1399 8 14.5599 8 15.4V19.6C8 20.4401 8 20.8601 8.16349 21.181C8.3073 21.4632 8.53677 21.6927 8.81901 21.8365C9.13988 22 9.55992 22 10.4 22Z" stroke="url(#paint0_linear_86_1503)" stroke-width="2" stroke-linecap="round" stroke-linejoin="round"/>
<defs>
<linearGradient id="paint0_linear_86_1503" x1="0.636364" y1="3.36364" x2="22" y2="23.5909" gradientUnits="userSpaceOnUse">
<stop stop-color="#F2994A"/>
<stop offset="0.953125" stop-color="#FFB878"/>
<stop offset="1" stop-color="#F2994A" stop-opacity="0"/>
</linearGradient>
</defs>
</svg>
