<svg width="21" height="23" viewBox="0 0 21 23" fill="none" xmlns="http://www.w3.org/2000/svg">
<path d="M17.3349 4.66683L16.445 18.0145C16.3671 19.1835 16.3281 19.7681 16.0756 20.2113C15.8533 20.6015 15.518 20.9152 15.1139 21.111C14.6548 21.3335 14.069 21.3335 12.8973 21.3335H8.43904C7.26737 21.3335 6.68154 21.3335 6.22251 21.111C5.81838 20.9152 5.48307 20.6015 5.26077 20.2113C5.00827 19.7681 4.9693 19.1835 4.89136 18.0145L4.00152 4.66683M1.7793 4.66683H19.5571M15.1126 4.66683L14.8119 3.76469C14.5205 2.89044 14.3748 2.45332 14.1045 2.13014C13.8659 1.84476 13.5594 1.62385 13.2132 1.48769C12.8211 1.3335 12.3604 1.3335 11.4388 1.3335H9.89755C8.97602 1.3335 8.51525 1.3335 8.12319 1.48769C7.77698 1.62385 7.4705 1.84476 7.23184 2.13014C6.96158 2.45332 6.81587 2.89044 6.52446 3.76469L6.22374 4.66683M12.8904 9.11127V16.8891M8.44596 9.11127V16.8891" stroke="url(#paint0_linear_4997_4607)" stroke-width="2" stroke-linecap="round" stroke-linejoin="round"/>
<defs>
<linearGradient id="paint0_linear_4997_4607" x1="-7.10959" y1="11.3335" x2="12.7525" y2="28.9887" gradientUnits="userSpaceOnUse">
<stop stop-color="#F456FE"/>
<stop offset="1" stop-color="#8D79F9"/>
</linearGradient>
</defs>
</svg>
