<svg width="24" height="24" viewBox="0 0 24 24" fill="none" xmlns="http://www.w3.org/2000/svg">
<path d="M16 6C16 4.34315 14.6569 3 13 3H11C9.34315 3 8 4.34315 8 6M21 10L17.3148 12.9482C16.8275 13.338 16.5838 13.5329 16.3125 13.6715C16.0718 13.7945 15.8156 13.8844 15.5508 13.9387C15.2523 14 14.9403 14 14.3163 14H9.68375C9.0597 14 8.74767 14 8.44921 13.9387C8.18443 13.8844 7.9282 13.7945 7.68749 13.6715C7.41617 13.5329 7.17251 13.338 6.68521 12.9482L3 10M7.8 21H16.2C17.8802 21 18.7202 21 19.362 20.673C19.9265 20.3854 20.3854 19.9265 20.673 19.362C21 18.7202 21 17.8802 21 16.2V11.8C21 10.1198 21 9.27976 20.673 8.63803C20.3854 8.07354 19.9265 7.6146 19.362 7.32698C18.7202 7 17.8802 7 16.2 7H7.8C6.11984 7 5.27976 7 4.63803 7.32698C4.07354 7.6146 3.6146 8.07354 3.32698 8.63803C3 9.27976 3 10.1198 3 11.8V16.2C3 17.8802 3 18.7202 3.32698 19.362C3.6146 19.9265 4.07354 20.3854 4.63803 20.673C5.27976 21 6.11984 21 7.8 21Z" stroke="url(#paint0_linear_86_1501)" stroke-width="2" stroke-linecap="round" stroke-linejoin="round"/>
<defs>
<linearGradient id="paint0_linear_86_1501" x1="3" y1="3" x2="21" y2="23.8636" gradientUnits="userSpaceOnUse">
<stop stop-color="#27AE60"/>
<stop offset="1" stop-color="#50FF9A"/>
</linearGradient>
</defs>
</svg>
