<svg width="20" height="17" viewBox="0 0 20 17" fill="none" xmlns="http://www.w3.org/2000/svg">
<path d="M1.17578 5.50203H19.2113M5.18367 12.5158H7.18762M4.3821 15.5218H16.005C17.1273 15.5218 17.6885 15.5218 18.1171 15.3033C18.4942 15.1112 18.8008 14.8047 18.9929 14.4276C19.2113 13.9989 19.2113 13.4378 19.2113 12.3154V4.70045C19.2113 3.57814 19.2113 3.01698 18.9929 2.58831C18.8008 2.21125 18.4942 1.90468 18.1171 1.71256C17.6885 1.49414 17.1273 1.49414 16.005 1.49414H4.3821C3.25978 1.49414 2.69862 1.49414 2.26995 1.71256C1.89289 1.90468 1.58632 2.21125 1.3942 2.58831C1.17578 3.01698 1.17578 3.57814 1.17578 4.70045V12.3154C1.17578 13.4378 1.17578 13.9989 1.3942 14.4276C1.58632 14.8047 1.89289 15.1112 2.26995 15.3033C2.69862 15.5218 3.25978 15.5218 4.3821 15.5218Z" stroke="white" stroke-width="1.46037" stroke-linecap="round" stroke-linejoin="round"/>
</svg>
