<svg width="26" height="22" viewBox="0 0 26 22" fill="none" xmlns="http://www.w3.org/2000/svg">
<path d="M1 6.99984H25M6.33333 16.3332H9M5.26667 20.3332H20.7333C22.2268 20.3332 22.9735 20.3332 23.544 20.0425C24.0457 19.7869 24.4537 19.3789 24.7094 18.8771C25 18.3067 25 17.56 25 16.0665V5.93317C25 4.4397 25 3.69296 24.7094 3.12253C24.4537 2.62076 24.0457 2.21282 23.544 1.95715C22.9735 1.6665 22.2268 1.6665 20.7333 1.6665H5.26667C3.77319 1.6665 3.02646 1.6665 2.45603 1.95715C1.95426 2.21282 1.54631 2.62076 1.29065 3.12253C1 3.69296 1 4.4397 1 5.93317V16.0665C1 17.56 1 18.3067 1.29065 18.8771C1.54631 19.3789 1.95426 19.7869 2.45603 20.0425C3.02646 20.3332 3.77319 20.3332 5.26667 20.3332Z" stroke="url(#paint0_linear_6536_609)" stroke-width="2" stroke-linecap="round" stroke-linejoin="round"/>
<defs>
<linearGradient id="paint0_linear_6536_609" x1="-11" y1="10.9998" x2="7.09231" y2="34.2614" gradientUnits="userSpaceOnUse">
<stop stop-color="#F456FE"/>
<stop offset="1" stop-color="#8D79F9"/>
</linearGradient>
</defs>
</svg>
