<svg width="20" height="20" viewBox="0 0 20 20" fill="white" xmlns="http://www.w3.org/2000/svg">
<path fill-rule="evenodd" clip-rule="evenodd" d="M10 2C5.58172 2 2 5.58172 2 10C2 14.4183 5.58172 18 10 18C14.4183 18 18 14.4183 18 10C18 5.58172 14.4183 2 10 2ZM0 10C0 4.47715 4.47715 0 10 0C15.5228 0 20 4.47715 20 10C20 15.5228 15.5228 20 10 20C4.47715 20 0 15.5228 0 10ZM14.6783 6.2652C15.0841 6.6398 15.1094 7.27246 14.7348 7.67828L9.19634 13.6783C9.00704 13.8834 8.74064 14 8.46154 14C8.18244 14 7.91604 13.8834 7.72674 13.6783L5.2652 11.0116C4.89059 10.6058 4.9159 9.97313 5.32172 9.59853C5.72754 9.22393 6.3602 9.24923 6.7348 9.65505L8.46154 11.5257L13.2652 6.32172C13.6398 5.9159 14.2725 5.89059 14.6783 6.2652Z" />
</svg>
