<svg width="64" height="64" viewBox="0 0 64 64" fill="none" xmlns="http://www.w3.org/2000/svg">
<path d="M63.9999 32C63.9999 49.6731 49.6731 63.9999 32 63.9999C14.3269 63.9999 0 49.6731 0 32C0 14.3269 14.3269 0 32 0C49.6731 0 63.9999 14.3269 63.9999 32ZM5.12 32C5.12 46.8454 17.1546 58.8799 32 58.8799C46.8454 58.8799 58.8799 46.8454 58.8799 32C58.8799 17.1546 46.8454 5.12 32 5.12C17.1546 5.12 5.12 17.1546 5.12 32Z" fill="#121123"/>
<path d="M32 2.56007C32 1.14622 33.148 -0.0105682 34.5573 0.102415C38.8902 0.449789 43.1163 1.67721 46.9737 3.71957C51.5869 6.16212 55.5325 9.69611 58.4665 14.0134C61.4005 18.3307 63.2339 23.3002 63.8067 28.4885C64.3795 33.6769 63.6744 38.9267 61.7528 43.78C59.8312 48.6334 56.7515 52.9429 52.7823 56.333C48.813 59.7231 44.0747 62.0906 38.9805 63.2293C33.8863 64.368 28.5909 64.2432 23.556 62.8658C19.3461 61.7141 15.4251 59.7159 12.0287 57.003C10.924 56.1206 10.8791 54.4915 11.8469 53.4608C12.8148 52.4302 14.4281 52.3903 15.5461 53.2557C18.3238 55.4059 21.503 56.996 24.9071 57.9273C29.1364 59.0843 33.5845 59.1891 37.8637 58.2326C42.1428 57.2761 46.1229 55.2874 49.4571 52.4397C52.7913 49.5921 55.3782 45.972 56.9923 41.8952C58.6065 37.8184 59.1988 33.4086 58.7176 29.0504C58.2365 24.6921 56.6964 20.5178 54.2319 16.8913C51.7673 13.2647 48.453 10.2962 44.5779 8.24444C41.4589 6.59303 38.0529 5.57592 34.5561 5.24188C33.1487 5.10743 32 3.97392 32 2.56007Z" fill="url(#paint0_linear_2045_4421)"/>
<defs>
<linearGradient id="paint0_linear_2045_4421" x1="7.27272" y1="64" x2="73.4545" y2="6.40457e-05" gradientUnits="userSpaceOnUse">
<stop stop-color="#7012CF"/>
<stop offset="1" stop-color="#CD9CFF"/>
</linearGradient>
</defs>
</svg>
