<svg width="24" height="24" viewBox="0 0 24 24" fill="none" xmlns="http://www.w3.org/2000/svg">
<path d="M12 18C9.17157 18 7.75736 18 6.87868 17.1213C6 16.2426 6 14.8284 6 12M12 18C14.8284 18 16.2426 18 17.1213 17.1213C18 16.2426 18 14.8284 18 12M12 18V21M6 12C6 9.17157 6 7.75736 6.87868 6.87868C7.75736 6 9.17157 6 12 6M6 12H3M18 12C18 9.17157 18 7.75736 17.1213 6.87868C16.2426 6 14.8284 6 12 6M18 12H21M12 6V3M21 8H18M21 16H18M6 8H3M8 6V3M8 21V18M16 6V3M16 21V18M6 16H3M10 14H10.01M14 14H14.01M14 10H14.01M10 10H10.01" stroke="#07E092" stroke-width="2" stroke-linecap="round" stroke-linejoin="round"/>
</svg>
