<svg width="33" height="33" viewBox="0 0 33 33" fill="none" xmlns="http://www.w3.org/2000/svg">
<g opacity="0.1">
<path fill-rule="evenodd" clip-rule="evenodd" d="M16.627 32.6274C25.4635 32.6274 32.627 25.464 32.627 16.6274C32.627 7.79086 25.4635 0.627417 16.627 0.627417C7.7904 0.627417 0.626954 7.79086 0.626953 16.6274C0.626955 25.464 7.7904 32.6274 16.627 32.6274ZM21.341 11.9134C20.8203 11.3927 19.9761 11.3927 19.4554 11.9134L16.627 14.7418L13.7985 11.9134C13.2778 11.3927 12.4336 11.3927 11.9129 11.9134C11.3922 12.4341 11.3922 13.2783 11.9129 13.799L14.7413 16.6274L11.9129 19.4558C11.3922 19.9765 11.3922 20.8208 11.9129 21.3415C12.4336 21.8621 13.2778 21.8622 13.7985 21.3415L16.627 18.513L19.4554 21.3415C19.9761 21.8621 20.8203 21.8621 21.341 21.3414C21.8617 20.8208 21.8617 19.9765 21.341 19.4558L18.5126 16.6274L21.341 13.799C21.8617 13.2783 21.8617 12.4341 21.341 11.9134Z" fill="white"/>
</g>
</svg>
