<svg width="33" height="33" viewBox="0 0 33 33" fill="none" xmlns="http://www.w3.org/2000/svg">
<g opacity="0.2">
<path fill-rule="evenodd" clip-rule="evenodd" d="M27.9411 27.9412C34.1895 21.6928 34.1895 11.5621 27.9411 5.31373C21.6928 -0.934656 11.5621 -0.934656 5.31373 5.31373C-0.934656 11.5621 -0.934656 21.6928 5.31373 27.9412C11.5621 34.1895 21.6928 34.1895 27.9411 27.9412ZM21.3417 11.9136C20.8209 11.3929 19.9767 11.3929 19.456 11.9136L16.6276 14.742L13.7992 11.9136C13.2785 11.3929 12.4343 11.3929 11.9136 11.9136C11.3929 12.4343 11.3929 13.2785 11.9136 13.7992L14.742 16.6276L11.9136 19.456C11.3929 19.9767 11.3929 20.8209 11.9136 21.3416C12.4343 21.8623 13.2785 21.8623 13.7992 21.3416L16.6276 18.5132L19.456 21.3416C19.9767 21.8623 20.8209 21.8623 21.3417 21.3416C21.8623 20.8209 21.8623 19.9767 21.3417 19.456L18.5132 16.6276L21.3417 13.7992C21.8623 13.2785 21.8623 12.4343 21.3417 11.9136Z" fill="white"/>
</g>
</svg>
