<svg width="20" height="20" viewBox="0 0 20 20" fill="none" xmlns="http://www.w3.org/2000/svg">
<path d="M4.6 8H4.2C3.0799 8 2.51984 8 2.09202 7.78201C1.71569 7.59027 1.40973 7.28431 1.21799 6.90798C1 6.48016 1 5.9201 1 4.8V4.2C1 3.0799 1 2.51984 1.21799 2.09202C1.40973 1.71569 1.71569 1.40973 2.09202 1.21799C2.51984 1 3.0799 1 4.2 1H15.8C16.9201 1 17.4802 1 17.908 1.21799C18.2843 1.40973 18.5903 1.71569 18.782 2.09202C19 2.51984 19 3.0799 19 4.2V4.8C19 5.9201 19 6.48016 18.782 6.90798C18.5903 7.28431 18.2843 7.59027 17.908 7.78201C17.4802 8 16.9201 8 15.8 8H15.4M6.9378 18.9874C7.71885 18.2063 7.71885 16.94 6.9378 16.1589C6.15675 15.3779 4.89042 15.3779 4.10938 16.1589M13.4138 18.9874C12.6327 18.2063 12.6327 16.94 13.4138 16.1589C14.1948 15.3779 15.4611 15.3779 16.2422 16.1589M16 15.8V8.2C16 7.07989 16 6.51984 15.782 6.09202C15.5903 5.71569 15.2843 5.40973 14.908 5.21799C14.4802 5 13.9201 5 12.8 5H7.2C6.0799 5 5.51984 5 5.09202 5.21799C4.71569 5.40973 4.40973 5.71569 4.21799 6.09202C4 6.51984 4 7.07989 4 8.2V15.8C4 16.9201 4 17.4802 4.21799 17.908C4.40973 18.2843 4.71569 18.5903 5.09202 18.782C5.51984 19 6.07989 19 7.2 19H12.8C13.9201 19 14.4802 19 14.908 18.782C15.2843 18.5903 15.5903 18.2843 15.782 17.908C16 17.4802 16 16.9201 16 15.8ZM12 10C12 11.1046 11.1046 12 10 12C8.89543 12 8 11.1046 8 10C8 8.89543 8.89543 8 10 8C11.1046 8 12 8.89543 12 10Z" stroke="#9B51E0" stroke-width="2" stroke-linecap="round" stroke-linejoin="round"/>
</svg>
