<svg width="18" height="18" viewBox="0 0 18 18" fill="none" xmlns="http://www.w3.org/2000/svg">
<path d="M5 5H4.2C3.0799 5 2.51984 5 2.09202 5.21799C1.71569 5.40973 1.40973 5.71569 1.21799 6.09202C1 6.51984 1 7.0799 1 8.2V13.8C1 14.9201 1 15.4802 1.21799 15.908C1.40973 16.2843 1.71569 16.5903 2.09202 16.782C2.51984 17 3.0799 17 4.2 17H9.8C10.9201 17 11.4802 17 11.908 16.782C12.2843 16.5903 12.5903 16.2843 12.782 15.908C13 15.4802 13 14.9201 13 13.8V13M8.2 13H13.8C14.9201 13 15.4802 13 15.908 12.782C16.2843 12.5903 16.5903 12.2843 16.782 11.908C17 11.4802 17 10.9201 17 9.8V4.2C17 3.0799 17 2.51984 16.782 2.09202C16.5903 1.71569 16.2843 1.40973 15.908 1.21799C15.4802 1 14.9201 1 13.8 1H8.2C7.0799 1 6.51984 1 6.09202 1.21799C5.71569 1.40973 5.40973 1.71569 5.21799 2.09202C5 2.51984 5 3.07989 5 4.2V9.8C5 10.9201 5 11.4802 5.21799 11.908C5.40973 12.2843 5.71569 12.5903 6.09202 12.782C6.51984 13 7.07989 13 8.2 13Z" stroke="#07E092" stroke-width="2" stroke-linecap="round" stroke-linejoin="round"/>
</svg>
