<svg width="17" height="17" viewBox="0 0 17 17" fill="none" xmlns="http://www.w3.org/2000/svg">
<path d="M15.7188 0.625H5.21875C5.0447 0.625 4.87778 0.694141 4.75471 0.817211C4.63164 0.940282 4.5625 1.1072 4.5625 1.28125V4.5625H1.28125C1.1072 4.5625 0.940282 4.63164 0.817211 4.75471C0.694141 4.87778 0.625 5.0447 0.625 5.21875V15.7188C0.625 15.8928 0.694141 16.0597 0.817211 16.1828C0.940282 16.3059 1.1072 16.375 1.28125 16.375H11.7812C11.9553 16.375 12.1222 16.3059 12.2453 16.1828C12.3684 16.0597 12.4375 15.8928 12.4375 15.7188V12.4375H15.7188C15.8928 12.4375 16.0597 12.3684 16.1828 12.2453C16.3059 12.1222 16.375 11.9553 16.375 11.7812V1.28125C16.375 1.1072 16.3059 0.940282 16.1828 0.817211C16.0597 0.694141 15.8928 0.625 15.7188 0.625ZM11.125 15.0625H1.9375V5.875H11.125V15.0625ZM15.0625 11.125H12.4375V5.21875C12.4375 5.0447 12.3684 4.87778 12.2453 4.75471C12.1222 4.63164 11.9553 4.5625 11.7812 4.5625H5.875V1.9375H15.0625V11.125Z" fill="url(#paint0_linear_4302_5122)"/>
<defs>
<linearGradient id="paint0_linear_4302_5122" x1="-7.25" y1="8.5" x2="8.5" y2="24.25" gradientUnits="userSpaceOnUse">
<stop stop-color="#F456FE"/>
<stop offset="1" stop-color="#8D79F9"/>
</linearGradient>
</defs>
</svg>
