<svg width="24" height="24" viewBox="0 0 24 24" fill="none" xmlns="http://www.w3.org/2000/svg">
<path d="M12.5 19H18.8C19.9201 19 20.4802 19 20.908 18.782C21.2843 18.5903 21.5903 18.2843 21.782 17.908C22 17.4802 22 16.9201 22 15.8V8.2C22 7.0799 22 6.51984 21.782 6.09202C21.5903 5.71569 21.2843 5.40973 20.908 5.21799C20.4802 5 19.9201 5 18.8 5H6.2C5.0799 5 4.51984 5 4.09202 5.21799C3.71569 5.40973 3.40973 5.71569 3.21799 6.09202C3 6.51984 3 7.0799 3 8.2V15M3 9H21M9 19.0008L3 19M9 19.0008L7 17M9 19.0008L7 21" stroke="#07E092" stroke-width="2" stroke-linecap="round" stroke-linejoin="round"/>
</svg>
