<svg width="21" height="25" viewBox="0 0 21 25" fill="none" xmlns="http://www.w3.org/2000/svg">
<path d="M18.9375 9.125H12.1875V2.375H2.0625V22.625H18.9375V9.125ZM18.2389 7.4375L13.875 3.07363V7.4375H18.2389ZM1.21875 0.6875H13.875L20.625 7.4375V23.4688C20.625 23.6925 20.5361 23.9071 20.3779 24.0654C20.2196 24.2236 20.005 24.3125 19.7812 24.3125H1.21875C0.994974 24.3125 0.780363 24.2236 0.622129 24.0654C0.463895 23.9071 0.375 23.6925 0.375 23.4688V1.53125C0.375 1.30747 0.463895 1.09286 0.622129 0.934629C0.780363 0.776395 0.994974 0.6875 1.21875 0.6875ZM5.4375 12.5H15.5625V14.1875H5.4375V12.5ZM5.4375 7.4375H9.65625V9.125H5.4375V7.4375ZM5.4375 17.5625H15.5625V19.25H5.4375V17.5625Z" fill="url(#paint0_linear_4750_1071)"/>
<defs>
<linearGradient id="paint0_linear_4750_1071" x1="-9.75" y1="12.5" x2="13.5971" y2="32.5118" gradientUnits="userSpaceOnUse">
<stop stop-color="#F456FE"/>
<stop offset="1" stop-color="#8D79F9"/>
</linearGradient>
</defs>
</svg>
