<svg width="16" height="16" viewBox="0 0 16 16" fill="none" xmlns="http://www.w3.org/2000/svg">
<path d="M8 5.33333V13.3333M8 4.66667H5.64286C5.29555 4.66667 4.96247 4.52619 4.71688 4.27614C4.4713 4.02609 4.33333 3.68696 4.33333 3.33333C4.33333 2.97971 4.4713 2.64057 4.71688 2.39052C4.96247 2.14048 5.29555 2 5.64286 2C7.47619 2 8 4.66667 8 4.66667ZM8 4.66667H10.3571C10.7045 4.66667 11.0375 4.52619 11.2831 4.27614C11.5287 4.02609 11.6667 3.68696 11.6667 3.33333C11.6667 2.97971 11.5287 2.64057 11.2831 2.39052C11.0375 2.14048 10.7045 2 10.3571 2C8.52381 2 8 4.66667 8 4.66667ZM3.33333 8H12.6667V11.8667C12.6667 12.6134 12.6667 12.9868 12.5213 13.272C12.3935 13.5229 12.1895 13.7268 11.9387 13.8547C11.6534 14 11.2801 14 10.5333 14H5.46667C4.71993 14 4.34656 14 4.06135 13.8547C3.81046 13.7268 3.60649 13.5229 3.47866 13.272C3.33333 12.9868 3.33333 12.6134 3.33333 11.8667V8ZM3.06667 8H12.9333C13.3067 8 13.4934 8 13.636 7.92734C13.7614 7.86342 13.8634 7.76144 13.9273 7.63599C14 7.49339 14 7.3067 14 6.93333V5.73333C14 5.35997 14 5.17328 13.9273 5.03067C13.8634 4.90523 13.7614 4.80324 13.636 4.73933C13.4934 4.66667 13.3067 4.66667 12.9333 4.66667H3.06667C2.6933 4.66667 2.50661 4.66667 2.36401 4.73933C2.23856 4.80324 2.13658 4.90523 2.07266 5.03067C2 5.17328 2 5.35997 2 5.73333V6.93333C2 7.3067 2 7.49339 2.07266 7.63599C2.13658 7.76144 2.23856 7.86342 2.36401 7.92734C2.50661 8 2.6933 8 3.06667 8Z" stroke="url(#paint0_linear_3562_2336)" stroke-width="1.5" stroke-linecap="round" stroke-linejoin="round"/>
<defs>
<linearGradient id="paint0_linear_3562_2336" x1="-4" y1="8" x2="8" y2="20" gradientUnits="userSpaceOnUse">
<stop stop-color="#F456FE"/>
<stop offset="1" stop-color="#8D79F9"/>
</linearGradient>
</defs>
</svg>
