<svg width="20" height="20" viewBox="0 0 20 20" fill="none" xmlns="http://www.w3.org/2000/svg">
<path d="M10 6V18M10 5H6.46429C5.94332 5 5.4437 4.78929 5.07533 4.41421C4.70695 4.03914 4.5 3.53043 4.5 3C4.5 2.46957 4.70695 1.96086 5.07533 1.58579C5.4437 1.21071 5.94332 1 6.46429 1C9.21429 1 10 5 10 5ZM10 5H13.5357C14.0567 5 14.5563 4.78929 14.9247 4.41421C15.293 4.03914 15.5 3.53043 15.5 3C15.5 2.46957 15.293 1.96086 14.9247 1.58579C14.5563 1.21071 14.0567 1 13.5357 1C10.7857 1 10 5 10 5ZM3 10H17V15.8C17 16.9201 17 17.4802 16.782 17.908C16.5903 18.2843 16.2843 18.5903 15.908 18.782C15.4802 19 14.9201 19 13.8 19H6.2C5.07989 19 4.51984 19 4.09202 18.782C3.71569 18.5903 3.40973 18.2843 3.21799 17.908C3 17.4802 3 16.9201 3 15.8V10ZM2.6 10H17.4C17.9601 10 18.2401 10 18.454 9.89101C18.6422 9.79513 18.7951 9.64215 18.891 9.45399C19 9.24008 19 8.96005 19 8.4V6.6C19 6.03995 19 5.75992 18.891 5.54601C18.7951 5.35785 18.6422 5.20487 18.454 5.10899C18.2401 5 17.9601 5 17.4 5H2.6C2.03995 5 1.75992 5 1.54601 5.10899C1.35785 5.20487 1.20487 5.35785 1.10899 5.54601C1 5.75992 1 6.03995 1 6.6V8.4C1 8.96005 1 9.24008 1.10899 9.45399C1.20487 9.64215 1.35785 9.79513 1.54601 9.89101C1.75992 10 2.03995 10 2.6 10Z" stroke="url(#paint0_linear_5575_2853)" stroke-width="2" stroke-linecap="round" stroke-linejoin="round"/>
<defs>
<linearGradient id="paint0_linear_5575_2853" x1="1" y1="1" x2="19" y2="19" gradientUnits="userSpaceOnUse">
<stop stop-color="#DB7784"/>
<stop offset="1" stop-color="#D12038"/>
</linearGradient>
</defs>
</svg>
