<svg width="35" height="35" viewBox="0 0 35 35" fill="none" xmlns="http://www.w3.org/2000/svg">
<path fill-rule="evenodd" clip-rule="evenodd" d="M33.34 17.875C33.34 16.705 33.235 15.58 33.04 14.5H17.5V20.8825H26.38C25.9975 22.945 24.835 24.6925 23.0875 25.8625V30.0025H28.42C31.54 27.13 33.34 22.9 33.34 17.875Z" fill="white"/>
<path fill-rule="evenodd" clip-rule="evenodd" d="M17.4999 34C21.9549 34 25.6899 32.5225 28.4199 30.0025L23.0874 25.8625C21.6099 26.8525 19.7199 27.4375 17.4999 27.4375C13.2024 27.4375 9.56488 24.535 8.26738 20.635H2.75488V24.91C5.46988 30.3025 11.0499 34 17.4999 34Z" fill="white"/>
<path fill-rule="evenodd" clip-rule="evenodd" d="M8.2675 20.635C7.9375 19.645 7.75 18.5875 7.75 17.5C7.75 16.4125 7.9375 15.355 8.2675 14.365V10.09H2.755C1.6375 12.3175 1 14.8375 1 17.5C1 20.1625 1.6375 22.6825 2.755 24.91L8.2675 20.635Z" fill="white"/>
<path fill-rule="evenodd" clip-rule="evenodd" d="M17.4999 7.5625C19.9224 7.5625 22.0974 8.395 23.8074 10.03L28.5399 5.2975C25.6824 2.635 21.9474 1 17.4999 1C11.0499 1 5.46988 4.6975 2.75488 10.09L8.26738 14.365C9.56488 10.465 13.2024 7.5625 17.4999 7.5625Z" fill="white"/>
</svg>
