<svg width="25" height="19" viewBox="0 0 25 19" fill="none" xmlns="http://www.w3.org/2000/svg">
<path d="M14.4241 4.24652C14.4241 4.24652 6.32157 2.47328 4.64173 7.78708C3.6074 7.09803 2.62398 6.10029 2.3938 4.7243C1.86612 1.57844 5.24726 0.864932 5.24726 0.864932C10.732 -0.48534 14.4241 4.24652 14.4241 4.24652Z" fill="url(#paint0_linear_4327_5372)"/>
<path d="M7.87891 0.158198C7.87891 0.158198 17.8093 -1.00393 21.4742 2.97136C22.0983 3.64521 22.4393 4.536 22.4256 5.45718C22.4097 6.43333 22.1426 7.79321 21.0043 8.89769C18.9823 10.8555 16.3955 11.6688 13.4262 11.2169C13.4262 11.2169 17.8841 10.0026 16.9377 6.9639C15.9912 3.92521 11.7712 0.308828 7.87891 0.158198Z" fill="url(#paint1_linear_4327_5372)"/>
<path d="M23.1822 4.84046C23.9654 5.74316 24.4439 7.69475 24.2564 9.79252C24.1442 11.0489 22.9071 18.2542 16.1235 18.2542C9.33987 18.2542 3.60619 12.9514 3.60619 12.9514C-3.89288 5.05385 2.63035 1.74463 2.63035 1.74463C2.63035 1.74463 -1.29272 5.16726 5.22926 9.08472C11.7512 13.0022 18.6717 12.6884 21.1706 9.99919C23.6695 7.30998 23.1822 4.84046 23.1822 4.84046Z" fill="url(#paint2_linear_4327_5372)"/>
<defs>
<linearGradient id="paint0_linear_4327_5372" x1="-3.70522" y1="4.20482" x2="2.58016" y2="14.808" gradientUnits="userSpaceOnUse">
<stop stop-color="#F456FE"/>
<stop offset="1" stop-color="#8D79F9"/>
</linearGradient>
<linearGradient id="paint1_linear_4327_5372" x1="0.605361" y1="5.66931" x2="11.6009" y2="19.7762" gradientUnits="userSpaceOnUse">
<stop stop-color="#F456FE"/>
<stop offset="1" stop-color="#8D79F9"/>
</linearGradient>
<linearGradient id="paint2_linear_4327_5372" x1="-12.1485" y1="9.9994" x2="3.20072" y2="32.5889" gradientUnits="userSpaceOnUse">
<stop stop-color="#F456FE"/>
<stop offset="1" stop-color="#8D79F9"/>
</linearGradient>
</defs>
</svg>
