<svg width="24" height="24" viewBox="0 0 24 24" fill="none" xmlns="http://www.w3.org/2000/svg">
<path d="M11.5 5H8.8C7.11984 5 6.27976 5 5.63803 5.32698C5.07354 5.6146 4.6146 6.07354 4.32698 6.63803C4 7.27976 4 8.11984 4 9.8V15.2C4 16.8802 4 17.7202 4.32698 18.362C4.6146 18.9265 5.07354 19.3854 5.63803 19.673C6.27976 20 7.11984 20 8.8 20H14.2C15.8802 20 16.7202 20 17.362 19.673C17.9265 19.3854 18.3854 18.9265 18.673 18.362C19 17.7202 19 16.8802 19 15.2V12.5M20 4L12 12M20 4V8.5M20 4H15.5" stroke="#07E092" stroke-width="2" stroke-linecap="round" stroke-linejoin="round"/>
</svg>
