<svg width="186" height="37" viewBox="0 0 186 37" fill="none" xmlns="http://www.w3.org/2000/svg">
<path d="M27.8552 9.27931C27.8552 9.27931 12.2062 5.84566 8.96177 16.1352C6.96409 14.8009 5.06475 12.8689 4.62019 10.2045C3.60104 4.11292 10.1313 2.73129 10.1313 2.73129C20.7243 0.116653 27.8552 9.27931 27.8552 9.27931Z" fill="url(#paint0_linear_385_3051)"/>
<path d="M15.2212 1.36187C15.2212 1.36187 34.4004 -0.888438 41.4786 6.80922C42.6841 8.11405 43.3426 9.83895 43.3162 11.6227C43.2855 13.5129 42.7696 16.1461 40.5711 18.2848C36.6659 22.0758 31.6698 23.6507 25.935 22.7757C25.935 22.7757 34.5449 20.4243 32.717 14.5403C30.8891 8.65624 22.7387 1.65355 15.2212 1.36187Z" fill="url(#paint1_linear_385_3051)"/>
<path d="M44.7733 10.428C46.2861 12.176 47.2102 15.955 46.848 20.0171C46.6313 22.45 44.2421 36.4021 31.1404 36.4021C18.0387 36.4021 6.96489 26.1338 6.96489 26.1338C-7.51859 10.8412 5.08017 4.43335 5.08017 4.43335C5.08017 4.43335 -2.49671 11.0609 10.0996 18.6466C22.6959 26.2322 36.062 25.6246 40.8882 20.4173C45.7144 15.21 44.7733 10.428 44.7733 10.428Z" fill="url(#paint2_linear_385_3051)"/>
<path d="M157.872 6.56433H166.119L171.793 20.4261H172.079L177.752 6.56433H186V31.0375H179.516V16.8889H179.326L173.891 30.8463H169.981L164.546 16.7933H164.355V31.0375H157.872V6.56433Z" fill="white"/>
<path d="M154.73 6.56433V31.0375H148.104V6.56433H154.73Z" fill="white"/>
<path d="M102.216 31.0375V6.56433H108.843V25.684H118.712V31.0375H102.216Z" fill="white"/>
<path d="M79.4707 11.87V6.56433H90.007C91.8187 6.56433 93.4039 6.92282 94.7626 7.63981C96.1214 8.3568 97.1782 9.36456 97.933 10.6631C98.6879 11.9617 99.0653 13.4793 99.0653 15.216C99.0653 16.9686 98.676 18.4862 97.8973 19.7688C97.1265 21.0515 96.0419 22.0393 94.6434 22.7324C93.2529 23.4255 90.4241 23.772 86.1994 23.772V31.0313H79.4707V18.6097H88.4337C89.2124 18.6097 89.8759 18.4743 90.4241 18.2034C90.9804 17.9246 91.4055 17.5303 91.6995 17.0204C92.0014 16.5105 92.1524 15.9091 92.1524 15.216C92.1524 14.5149 92.0014 13.9174 91.6995 13.4235C91.4055 12.9216 90.9804 12.5392 90.4241 12.2763C89.8759 12.0055 89.2124 11.87 88.4337 11.87H86.0976H79.4707Z" fill="white"/>
<path d="M69.6942 6.56432L76.3211 0V22.2424C76.3211 24.1066 75.8761 25.7198 74.9862 27.0821C74.1042 28.4364 72.8726 29.484 71.2913 30.2249C69.7101 30.9578 67.8746 31.3243 65.7848 31.3243C63.6791 31.3243 61.8357 30.9578 60.2545 30.2249C58.6732 29.484 57.4416 28.4364 56.5596 27.0821C55.6856 25.7198 55.2485 24.1066 55.2485 22.2424V6.56432H61.8754V21.6688C61.8754 22.4257 62.0423 23.1028 62.376 23.7003C62.7097 24.2898 63.1706 24.7519 63.7586 25.0865C64.3546 25.4211 65.03 25.5884 65.7848 25.5884C66.5476 25.5884 67.223 25.4211 67.811 25.0865C68.399 24.7519 68.8599 24.2898 69.1936 23.7003C69.5273 23.1028 69.6942 22.4257 69.6942 21.6688V6.56432Z" fill="white"/>
<path d="M130.342 6.57471H137.621L145.773 31.0036H138.494L130.342 6.57471Z" fill="white"/>
<path d="M131.665 17.6431L128.356 7.63025L120.565 31.0036H127.845L131.665 17.6431Z" fill="white"/>
<defs>
<linearGradient id="paint0_linear_385_3051" x1="-7.15928" y1="9.19857" x2="5.02672" y2="29.7026" gradientUnits="userSpaceOnUse">
<stop stop-color="#F456FE"/>
<stop offset="1" stop-color="#8D79F9"/>
</linearGradient>
<linearGradient id="paint1_linear_385_3051" x1="1.1733" y1="12.0335" x2="22.4782" y2="39.2962" gradientUnits="userSpaceOnUse">
<stop stop-color="#F456FE"/>
<stop offset="1" stop-color="#8D79F9"/>
</linearGradient>
<linearGradient id="paint2_linear_385_3051" x1="-23.4633" y1="20.4177" x2="6.28696" y2="64.0878" gradientUnits="userSpaceOnUse">
<stop stop-color="#F456FE"/>
<stop offset="1" stop-color="#8D79F9"/>
</linearGradient>
</defs>
</svg>
