<svg width="186" height="41" viewBox="0 0 186 41" fill="none" xmlns="http://www.w3.org/2000/svg">
<path d="M51.4979 10.687C53.2379 12.6933 54.3009 17.0309 53.8842 21.6933C53.635 24.4858 50.8869 40.5 35.8171 40.5C20.7474 40.5 8.01013 28.7141 8.01013 28.7141C-8.64896 11.1613 5.8423 3.8063 5.8423 3.8063C5.8423 3.8063 -2.87273 11.4134 11.6157 20.1202C26.1042 28.8271 41.478 28.1296 47.0292 22.1527C52.5804 16.1757 51.4979 10.687 51.4979 10.687Z" fill="url(#paint0_linear_0_236)"/>
<path d="M17.499 0.351024C17.499 0.351024 39.5912 -2.22761 47.7445 6.59314C49.1331 8.08835 49.8916 10.0649 49.8612 12.1089C49.8258 14.2749 49.2316 17.2923 46.6992 19.743C42.2008 24.0871 36.4459 25.8918 29.8401 24.8891C29.8401 24.8891 39.7576 22.1947 37.6521 15.4522C35.5466 8.70963 26.1583 0.685256 17.499 0.351024Z" fill="url(#paint1_linear_0_236)"/>
<path d="M31.8573 9.49014C31.8573 9.49014 13.9502 5.56431 10.2376 17.3287C7.95169 15.8032 5.77828 13.5943 5.26957 10.5479C4.10335 3.58319 11.5759 2.00352 11.5759 2.00352C23.6975 -0.9859 31.8573 9.49014 31.8573 9.49014Z" fill="url(#paint2_linear_0_236)"/>
<path d="M82.6187 30.9043H87.2696L91.5188 19.1605L89.1928 12.7288L82.6187 30.9043Z" fill="white"/>
<path d="M90.2407 9.59564L97.9486 30.9044H102.599L94.8935 9.59564H90.2407Z" fill="white"/>
<path d="M103.404 9.59564L111.112 30.9044H115.763L108.056 9.59564H103.404Z" fill="white"/>
<path d="M114.976 22.3105L114.94 22.4094V22.6158L117.23 28.941L124.227 9.59564H119.575L114.976 22.3105Z" fill="white"/>
<path d="M143.359 9.7114H127.456V14.0994H143.359V9.7114Z" fill="white"/>
<path d="M178.617 9.70953H170.097V14.0975H178.618C179.018 14.0904 179.415 14.1634 179.787 14.3122C180.158 14.461 180.497 14.6826 180.782 14.964C181.067 15.2455 181.294 15.5812 181.449 15.9515C181.603 16.3219 181.683 16.7194 181.683 17.121C181.683 17.5226 181.603 17.9201 181.449 18.2905C181.294 18.6608 181.067 18.9965 180.782 19.278C180.497 19.5594 180.158 19.781 179.787 19.9298C179.415 20.0786 179.018 20.1515 178.618 20.1445H170.097V30.9025H174.468V24.5353H178.618C180.576 24.5353 182.454 23.7544 183.839 22.3644C185.223 20.9743 186.001 19.0891 186.001 17.1233C186.001 15.1576 185.223 13.2723 183.839 11.8823C182.454 10.4923 180.576 9.7114 178.618 9.7114L178.617 9.70953Z" fill="white"/>
<path d="M143.359 26.5164H127.456V30.9044H143.359V26.5164Z" fill="white"/>
<path d="M131.827 18.1139H127.456V22.5019H131.827V18.1139Z" fill="white"/>
<path d="M141.818 18.1139H134.063V22.5019H141.818V18.1139Z" fill="white"/>
<path d="M161.069 22.4281C161.068 23.5117 160.638 24.5503 159.875 25.3164C159.111 26.0824 158.076 26.5133 156.997 26.5145H156.554C155.475 26.5133 154.439 26.0822 153.676 25.3157C152.913 24.5493 152.483 23.5101 152.482 22.4262V9.70953H148.111V22.5831C148.114 24.7889 148.988 26.9036 150.542 28.4632C152.096 30.0228 154.203 30.9 156.4 30.9025H157.151C159.349 30.9003 161.456 30.0229 163.011 28.4628C164.565 26.9028 165.439 24.7876 165.441 22.5812V9.70953H161.07L161.069 22.4281Z" fill="white"/>
<path d="M77.3092 19.9876C78.1993 20.8822 78.8053 22.0215 79.0506 23.2617C79.2959 24.5018 79.1695 25.7871 78.6874 26.9552C78.2053 28.1233 77.3891 29.1217 76.342 29.8242C75.2948 30.5268 74.0637 30.902 72.8043 30.9025H61.9604V26.5145H72.8043C73.3346 26.5145 73.8431 26.303 74.2181 25.9266C74.5931 25.5501 74.8038 25.0396 74.8038 24.5072C74.8038 23.9749 74.5931 23.4643 74.2181 23.0879C73.8431 22.7115 73.3346 22.5 72.8043 22.5L68.5783 22.5102L68.6341 18.112H72.8024C73.6397 18.1106 74.4691 18.2756 75.2426 18.5976C76.0161 18.9195 76.7184 19.3919 77.3092 19.9876Z" fill="white"/>
<path d="M79.1756 9.70953V14.0975H68.3308C68.0682 14.0974 67.8082 14.1492 67.5655 14.25C67.3229 14.3509 67.1024 14.4987 66.9167 14.6851C66.731 14.8716 66.5837 15.0929 66.4833 15.3365C66.3828 15.5801 66.3312 15.8411 66.3313 16.1048V22.1779C64.8942 21.7004 63.6733 20.7247 62.8875 19.4258C62.1017 18.1269 61.8023 16.5895 62.0429 15.0891C62.2835 13.5887 63.0485 12.2233 64.2006 11.2376C65.3528 10.2518 66.817 9.71014 68.3308 9.70953H79.1756Z" fill="white"/>
<path d="M131.827 14.1003H127.456V26.5164H131.827V14.1003Z" fill="white"/>
<path d="M131.827 13.1051H127.456V27.5125H131.827V13.1051Z" fill="white"/>
<defs>
<linearGradient id="paint0_linear_0_236" x1="-26.9888" y1="22.1531" x2="7.13221" y2="72.3444" gradientUnits="userSpaceOnUse">
<stop stop-color="#F456FE"/>
<stop offset="1" stop-color="#8D79F9"/>
</linearGradient>
<linearGradient id="paint1_linear_0_236" x1="1.31751" y1="12.5796" x2="25.6998" y2="43.9432" gradientUnits="userSpaceOnUse">
<stop stop-color="#F456FE"/>
<stop offset="1" stop-color="#8D79F9"/>
</linearGradient>
<linearGradient id="paint2_linear_0_236" x1="-8.20967" y1="9.39782" x2="5.71747" y2="32.8512" gradientUnits="userSpaceOnUse">
<stop stop-color="#F456FE"/>
<stop offset="1" stop-color="#8D79F9"/>
</linearGradient>
</defs>
</svg>
