<svg width="49" height="31" viewBox="0 0 49 31" fill="none" xmlns="http://www.w3.org/2000/svg">
<path fill-rule="evenodd" clip-rule="evenodd" d="M33.996 30.064C42.1421 30.064 48.7458 23.5286 48.7458 15.4668C48.7458 7.40501 42.1421 0.869629 33.996 0.869629C30.3452 0.869629 27.0041 2.1823 24.4285 4.35676C21.8529 2.18233 18.5119 0.869677 14.8611 0.869677C6.71502 0.869677 0.111328 7.40506 0.111328 15.4669C0.111328 23.5287 6.71502 30.064 14.8611 30.064C18.5119 30.064 21.853 28.7514 24.4286 26.5769C27.0042 28.7513 30.3452 30.064 33.996 30.064Z" fill="#ED0006"/>
<path fill-rule="evenodd" clip-rule="evenodd" d="M24.4297 26.577C27.6011 23.8996 29.6121 19.9156 29.6121 15.4668C29.6121 11.018 27.6011 7.03405 24.4297 4.35665C27.0053 2.18226 30.3463 0.869629 33.997 0.869629C42.1431 0.869629 48.7468 7.40501 48.7468 15.4668C48.7468 23.5286 42.1431 30.064 33.997 30.064C30.3463 30.064 27.0053 28.7514 24.4297 26.577Z" fill="#F9A000"/>
<path fill-rule="evenodd" clip-rule="evenodd" d="M24.4285 26.5773C27.5999 23.8999 29.6109 19.9159 29.6109 15.4671C29.6109 11.0183 27.5999 7.03433 24.4285 4.35693C21.2571 7.03433 19.2461 11.0183 19.2461 15.4671C19.2461 19.9159 21.2571 23.8999 24.4285 26.5773Z" fill="#FF5E00"/>
</svg>
