<svg width="24" height="24" viewBox="0 0 24 24" fill="none" xmlns="http://www.w3.org/2000/svg">
<path d="M8.02176 16.04L4 18V7.2C4 6.0799 4 5.51984 4.21799 5.09202C4.40973 4.71569 4.71569 4.40973 5.09202 4.21799C5.51984 4 6.0799 4 7.2 4H14.8C15.9201 4 16.4802 4 16.908 4.21799C17.2843 4.40973 17.5903 4.71569 17.782 5.09202C18 5.51984 18 6.0799 18 7.2V9M20 20L17.8062 18.5374C17.5065 18.3377 17.3567 18.2378 17.1946 18.167C17.0507 18.1042 16.9 18.0586 16.7454 18.031C16.5713 18 16.3912 18 16.0311 18H11.2C10.0799 18 9.51984 18 9.09202 17.782C8.71569 17.5903 8.40973 17.2843 8.21799 16.908C8 16.4802 8 15.9201 8 14.8V12.2C8 11.0799 8 10.5198 8.21799 10.092C8.40973 9.71569 8.71569 9.40973 9.09202 9.21799C9.51984 9 10.0799 9 11.2 9H16.8C17.9201 9 18.4802 9 18.908 9.21799C19.2843 9.40973 19.5903 9.71569 19.782 10.092C20 10.5198 20 11.0799 20 12.2V20Z" stroke="#3D4ABA" stroke-width="2" stroke-linecap="round" stroke-linejoin="round"/>
</svg>
