<svg width="24" height="24" viewBox="0 0 24 24" fill="none" xmlns="http://www.w3.org/2000/svg">
<path d="M21 8.8C21 7.11984 21 6.27976 20.673 5.63803C20.3854 5.07354 19.9265 4.6146 19.362 4.32698C18.7202 4 17.8802 4 16.2 4H7.8C6.11984 4 5.27976 4 4.63803 4.32698C4.07354 4.6146 3.6146 5.07354 3.32698 5.63803C3 6.27976 3 7.11984 3 8.8V16.4444V20L6.32433 18.3378C6.57632 18.2118 6.70232 18.1488 6.83437 18.1044C6.95163 18.065 7.07231 18.0365 7.19484 18.0193C7.33282 18 7.47368 18 7.75542 18H16.2C17.8802 18 18.7202 18 19.362 17.673C19.9265 17.3854 20.3854 16.9265 20.673 16.362C21 15.7202 21 14.8802 21 13.2V8.8Z" stroke="#9A95B2" stroke-width="2" stroke-linecap="round" stroke-linejoin="round"/>
</svg>
