<svg width="60" height="60" viewBox="0 0 60 60" fill="none" xmlns="http://www.w3.org/2000/svg">
<rect width="60" height="60" rx="16" fill="#181629"/>
<path d="M52.1468 41.2458C52.0591 38.6412 50.8634 36.4157 48.6896 34.8102C47.1666 33.6854 45.4146 32.8957 43.0078 32.2498C42.3506 32.0732 41.6947 31.9229 41.0609 31.778C40.5882 31.6697 40.142 31.5677 39.6951 31.4555C39.1609 31.3214 38.7115 31.2443 38.3202 31.1117C38.0961 31.0362 37.7563 30.949 37.582 30.8081C37.4585 30.7082 37.5198 30.462 37.5948 30.3218C38.4454 28.7271 39.2043 27.063 39.5802 25.1162C41.582 23.4966 41.6515 21.1129 41.6832 20.0399C41.7051 19.2808 41.5196 18.6433 41.1547 18.1635C41.1625 17.3863 41.1682 16.5848 41.1296 15.772C41.0855 14.8516 40.9432 13.9871 40.7063 13.2017C39.9206 10.6004 38.1815 8.8275 35.6767 8.07493C35.6188 8.05744 35.5619 8.04247 35.5064 8.02961C34.6373 6.98297 33.1288 6 30.5294 6C28.9176 6 27.2912 6.36616 26.0544 6.68511C24.0101 7.21212 22.4512 8.12616 21.2888 9.47951C19.6859 11.3455 18.9752 13.646 19.1169 16.5121C19.1464 17.1114 19.2067 17.6968 19.2714 18.2673C18.8996 18.7241 18.6447 19.3883 18.6694 20.3548C18.7187 22.2887 19.4103 23.8228 20.8413 25.1628C20.8942 25.3606 20.9437 25.572 20.9954 25.7921C21.0974 26.227 21.203 26.6768 21.3607 27.1515C21.6788 28.1099 22.2988 28.8757 22.5155 29.7463C22.6984 30.4812 22.6053 30.5912 22.1544 30.7432C21.9756 30.8035 21.5538 30.9405 21.3639 30.9936C20.5729 31.2158 19.8497 31.3535 19.0572 31.5696C17.9299 31.8769 16.7643 32.195 15.6148 32.5268C14.1911 32.9381 12.0898 33.659 10.2904 35.1648C8.9973 36.246 7.47278 37.8011 7.15721 40.2456C6.95526 41.8104 6.94788 43.4298 7.13507 45.0595C7.29001 46.4071 7.97512 47.4472 9.17122 48.152C11.1201 49.2998 13.2914 50.2334 15.8092 51.0056C19.896 52.2588 24.2567 52.9281 28.7706 52.9939C29.0554 52.9983 29.339 53 29.6231 53C34.8409 53 39.5456 52.3062 44.0066 50.8787C46.1629 50.1887 48.0543 49.3487 49.7883 48.3115C51.5047 47.2847 51.9389 45.9191 52.0011 44.9534C52.0144 44.7437 52.0292 44.5337 52.0435 44.3236C52.1114 43.3311 52.182 42.3055 52.1468 41.2458Z" fill="#24224A"/>
<path d="M49.8967 44.8181C49.8461 45.6069 49.3591 46.1105 48.7052 46.5015C47.02 47.5096 45.2284 48.2729 43.3635 48.8699C38.6261 50.3851 33.7597 50.9562 28.8006 50.8845C24.5862 50.8232 20.4574 50.2251 16.4266 48.9888C14.2705 48.3275 12.1916 47.4834 10.2404 46.3341C9.63688 45.9785 9.30929 45.5192 9.22856 44.8172C9.06329 43.3795 9.06223 41.9467 9.24711 40.5139C9.45601 38.8949 10.4611 37.7684 11.6418 36.7808C12.9724 35.6677 14.5541 35.0265 16.199 34.5513C18.1272 33.9942 20.0693 33.4861 22.0017 32.9439C22.6597 34.6782 23.5402 36.1146 24.6321 37.226C26.1428 38.7632 28.0227 39.6097 29.9258 39.6097C32.7514 39.6097 35.3597 37.8048 36.9019 34.7821C37.1852 34.2271 37.4369 33.6537 37.6617 33.0611C38.1615 33.2304 38.6695 33.3715 39.1818 33.4998C40.272 33.7737 41.3758 33.9944 42.4614 34.2859C44.2345 34.7619 45.9386 35.3992 47.4372 36.5059C49.0623 37.706 49.9721 39.3049 50.0402 41.3168C50.0788 42.4813 49.9711 43.6523 49.8967 44.8181ZM22.4166 23.7472C22.5947 23.9058 22.7408 24.1454 22.8085 24.375C23.0142 25.0728 23.1314 25.7979 23.3602 26.487C23.9158 28.1608 24.7643 29.6864 26.1225 30.829C27.3861 31.8918 28.8564 32.4007 30.3017 32.4007C32.4369 32.4007 34.5182 31.29 35.8001 29.2146C36.7187 27.7257 37.2696 26.1158 37.5668 24.4033C37.6064 24.1769 37.6779 23.8638 37.8402 23.7662C39.2901 22.8914 39.5311 21.4748 39.5749 19.9781C39.5914 19.4201 39.4594 19.3275 39.0376 19.2843C39.0376 18.1399 39.0772 17.0041 39.0232 15.8729C38.9899 15.1806 38.8871 14.4732 38.6872 13.8113C38.129 11.9623 36.9626 10.6629 35.0692 10.0942C34.7789 10.0069 34.3588 10.11 34.2007 9.83424C33.4515 8.52811 32.0676 8.1084 30.5283 8.1084C29.2262 8.1084 27.8134 8.40858 26.5798 8.72668C25.1556 9.0939 23.8661 9.71324 22.8867 10.8535C21.5099 12.4562 21.1206 14.3686 21.2213 16.4088C21.2698 17.3943 21.4144 18.3751 21.5179 19.3832C20.781 19.442 20.7605 19.7083 20.7757 20.3015C20.8128 21.7627 21.3196 22.7721 22.4166 23.7472Z" fill="#181629"/>
</svg>
