<svg width="24" height="24" viewBox="0 0 24 24" fill="none" xmlns="http://www.w3.org/2000/svg">
<path fill-rule="evenodd" clip-rule="evenodd" d="M11.9998 2C12.5521 2 12.9998 2.44772 12.9998 3V4.07114C14.2982 4.257 15.5199 4.80282 16.4825 5.65848C17.6932 6.73462 18.3998 8.22119 18.3998 9.8C18.3998 11.6119 18.8077 12.9241 19.3048 13.858L19.3139 13.8751C19.6749 14.5534 19.9567 15.0827 20.1448 15.4615C20.2388 15.6508 20.3209 15.8255 20.3799 15.9739C20.4091 16.0475 20.441 16.1354 20.465 16.2281C20.4827 16.296 20.5274 16.4767 20.4994 16.6927C20.4854 16.8011 20.4538 17.0398 20.3098 17.2795C20.1659 17.5192 19.97 17.6592 19.8809 17.7226C19.7235 17.8345 19.5673 17.8822 19.4897 17.9033C19.398 17.9281 19.3089 17.9428 19.235 17.9525C19.0873 17.9719 18.9154 17.9818 18.7364 17.9879C18.3794 18 17.8806 18 17.2523 18H6.74734C6.11897 18 5.62018 18 5.26326 17.9879C5.08421 17.9818 4.91235 17.9719 4.76462 17.9525C4.69073 17.9428 4.60165 17.9281 4.5099 17.9033C4.43231 17.8822 4.27606 17.8345 4.11868 17.7226C4.02958 17.6592 3.83371 17.5192 3.68977 17.2795C3.54583 17.0398 3.51425 16.8011 3.5002 16.6927C3.47222 16.4767 3.51691 16.296 3.53456 16.2281C3.55863 16.1354 3.59053 16.0475 3.61974 15.9739C3.67866 15.8255 3.76082 15.6508 3.85484 15.4615C4.04294 15.0827 4.32465 14.5534 4.68573 13.8751L4.69481 13.858C5.19191 12.9241 5.5998 11.6119 5.5998 9.8C5.5998 8.22119 6.30641 6.73462 7.51706 5.65848C8.47968 4.80282 9.7014 4.257 10.9998 4.07114V3C10.9998 2.44772 11.4475 2 11.9998 2ZM11.9998 6C10.7973 6 9.66436 6.42568 8.84579 7.1533C8.03106 7.8775 7.5998 8.83273 7.5998 9.8C7.5998 11.9262 7.11753 13.563 6.46028 14.7978C6.19855 15.2895 5.98819 15.6848 5.82591 15.9979C6.08387 16 6.39562 16 6.76958 16H17.23C17.604 16 17.9157 16 18.1737 15.9979C18.0114 15.6848 17.8011 15.2895 17.5393 14.7978C16.8821 13.563 16.3998 11.9262 16.3998 9.8C16.3998 8.83273 15.9686 7.8775 15.1538 7.1533C14.3352 6.42568 13.2023 6 11.9998 6ZM8.60407 19.3383C8.96953 18.9242 9.60147 18.8848 10.0155 19.2503C10.5461 19.7185 11.2407 20.0016 12.0038 20.0016C12.7669 20.0016 13.4615 19.7185 13.9921 19.2503C14.4061 18.8848 15.0381 18.9242 15.4035 19.3383C15.769 19.7523 15.7296 20.3843 15.3155 20.7497C14.4336 21.5281 13.2728 22.0016 12.0038 22.0016C10.7348 22.0016 9.574 21.5281 8.69207 20.7497C8.27801 20.3843 8.2386 19.7523 8.60407 19.3383Z" fill="white"/>
</svg>
