<svg width="24" height="26" viewBox="0 0 24 26" fill="none" xmlns="http://www.w3.org/2000/svg">
<path d="M13.6971 20.5157C13.6845 21.3485 13.6845 22.4352 13.6971 23.7757C13.7191 26.197 10.4885 26.869 9.66486 24.6468C9.4023 23.9363 9.5211 22.7205 9.52409 21.8951C9.52417 21.8868 9.52231 21.8787 9.51866 21.8713C9.515 21.8639 9.50966 21.8574 9.50306 21.8525C9.49646 21.8475 9.48878 21.8442 9.48064 21.8428C9.47251 21.8414 9.46414 21.8419 9.45621 21.8443C7.00629 22.6372 4.55803 23.4263 2.11144 24.2118C1.87051 24.289 1.61127 24.2938 1.33373 24.226C0.287476 23.9688 -0.232657 22.9553 0.0997889 21.9032C2.37733 14.7021 4.65687 7.5017 6.9384 0.301963C7.00296 0.0979791 7.17434 -0.00265742 7.45254 5.33261e-05C11.0286 0.0319046 14.2562 1.09316 17.1354 3.18382C17.3344 3.32817 17.4589 3.45761 17.5088 3.57214C17.6556 3.91064 17.2572 4.42704 16.8599 4.18002C16.5211 3.96926 16.185 3.75511 15.8516 3.53758C13.4076 1.94434 10.7308 1.104 7.82093 1.01658C7.80132 1.01603 7.78212 1.0219 7.76625 1.03328C7.75039 1.04466 7.73874 1.06093 7.73308 1.07961L7.15604 2.93782C7.155 2.94157 7.15476 2.9455 7.15534 2.94935C7.15591 2.9532 7.15728 2.95688 7.15936 2.96015C7.16144 2.96342 7.16417 2.9662 7.16739 2.96831C7.1706 2.97042 7.17422 2.97181 7.178 2.97239C12.8456 3.72563 17.6645 6.64511 19.8479 12.2279C20.4559 13.7811 20.7853 15.3039 21.0599 16.969C21.0665 17.0076 21.0878 17.0212 21.1238 17.0096L22.9088 16.4272C22.9487 16.4143 22.97 16.3862 22.9727 16.3428C22.9813 16.1856 22.9807 16.029 22.9707 15.8732C22.773 12.707 21.7581 9.87022 19.9258 7.36278C19.4695 6.73761 20.2582 6.11956 20.7324 6.77217C22.8915 9.74383 23.9807 13.0736 24 16.7616C24.002 17.091 23.7873 17.2079 23.4918 17.3055C22.3011 17.6978 21.1081 18.0834 19.9128 18.4623C19.8802 18.4724 19.8639 18.4948 19.8639 18.5294C19.8466 20.1206 19.8446 21.1744 19.8579 21.6908C19.9238 24.2778 16.4406 24.4181 16.3328 21.891C16.3015 21.1537 16.2985 20.4184 16.3238 19.6852C16.3239 19.6781 16.3224 19.671 16.3194 19.6647C16.3163 19.6583 16.3119 19.6527 16.3063 19.6485C16.3008 19.6442 16.2943 19.6413 16.2874 19.6401C16.2806 19.6389 16.2735 19.6393 16.2669 19.6414L13.7421 20.4536C13.7293 20.4579 13.7181 20.4661 13.71 20.4772C13.702 20.4883 13.6975 20.5018 13.6971 20.5157ZM19.2918 13.831C16.4815 14.9695 14.5128 11.0833 17.1015 9.40804C17.1321 9.38838 17.1361 9.36432 17.1135 9.33586C14.5437 6.08398 10.8918 4.44025 6.88349 3.96554C6.86819 3.96376 6.85278 3.96735 6.83986 3.97568C6.82695 3.98402 6.81732 3.99659 6.81261 4.01128L4.34672 11.7999C4.3354 11.8352 4.34572 11.8619 4.37766 11.8802C5.87118 12.724 6.38632 14.5405 5.47184 16.0378C4.86485 17.0327 3.91211 17.4911 2.6136 17.4132C2.58166 17.4112 2.56069 17.4261 2.55071 17.4579C2.04422 19.0634 1.53906 20.6691 1.03523 22.2753C0.889474 22.7398 1.18398 23.2572 1.68715 23.2379C1.72442 23.2366 1.74239 23.2169 1.74106 23.179C1.67716 20.537 4.78099 19.4788 6.26951 21.7284C6.28083 21.7454 6.29724 21.7583 6.3163 21.765C6.33537 21.7718 6.35607 21.7721 6.37534 21.766L7.97767 21.2648C7.98477 21.2626 7.9911 21.2584 7.99593 21.2527C8.00076 21.247 8.00389 21.24 8.00494 21.2325C8.00598 21.225 8.00491 21.2174 8.00185 21.2105C7.99879 21.2036 7.99386 21.1978 7.98765 21.1937C5.5557 19.5489 6.70379 15.7034 9.64689 15.8447C12.7308 15.9931 13.3807 20.1822 10.5494 21.4376C10.534 21.4445 10.5208 21.4558 10.5116 21.4701C10.5024 21.4843 10.4975 21.501 10.4975 21.518C10.4921 22.2783 10.4971 23.0458 10.5124 23.8204C10.5424 25.3869 12.6958 25.2822 12.6928 23.9536C12.6902 22.6931 12.6905 21.4332 12.6938 20.1741C12.6948 19.8224 12.8655 19.677 13.19 19.5723C14.2888 19.2192 15.387 18.8641 16.4845 18.507C16.9427 18.3576 17.3051 18.4775 17.3061 19.0224C17.3081 19.963 17.3098 20.9036 17.3111 21.8443C17.3121 22.7073 18.4472 23.059 18.7797 22.2356C18.8316 22.1062 18.8575 21.8924 18.8575 21.5942C18.8569 20.4726 18.8575 19.351 18.8595 18.2295C18.8615 17.5606 19.4865 17.5199 19.9977 17.3827C20.0228 17.3756 20.0447 17.3595 20.0592 17.3375C20.0737 17.3155 20.0798 17.2889 20.0765 17.2628C19.9294 16.11 19.6908 14.9776 19.3607 13.8655C19.3501 13.8289 19.3271 13.8174 19.2918 13.831ZM19.0343 12.8063L17.7634 10.2213C17.7622 10.2188 17.7606 10.2167 17.7586 10.2149C17.7566 10.2132 17.7543 10.2118 17.7518 10.211C17.7493 10.2101 17.7466 10.2098 17.744 10.21C17.7413 10.2102 17.7388 10.2109 17.7364 10.2121L17.7184 10.2213C17.3688 10.3998 17.1007 10.7075 16.9731 11.0767C16.8454 11.4459 16.8686 11.8464 17.0376 12.1903L17.0506 12.2177C17.1343 12.3881 17.2514 12.5394 17.3952 12.663C17.5389 12.7866 17.7065 12.88 17.8883 12.938C18.0701 12.9959 18.2626 13.0173 18.4548 13.0008C18.6469 12.9843 18.835 12.9303 19.0083 12.8419L19.0253 12.8327C19.0298 12.8303 19.0333 12.8262 19.0349 12.8213C19.0366 12.8164 19.0364 12.811 19.0343 12.8063ZM4.1131 12.8815C4.10392 12.8738 4.09302 12.8685 4.08136 12.866C4.0697 12.8636 4.05763 12.8641 4.0462 12.8675C4.03477 12.8709 4.02434 12.8771 4.01582 12.8856C4.00729 12.8941 4.00093 12.9045 3.9973 12.9161L2.90612 16.353C2.90388 16.3601 2.90335 16.3676 2.90457 16.375C2.90579 16.3823 2.90872 16.3893 2.91312 16.3953C2.91751 16.4012 2.92325 16.4061 2.92985 16.4093C2.93645 16.4126 2.94371 16.4141 2.95104 16.414C4.90079 16.3519 5.61361 14.1481 4.1131 12.8815ZM11.3719 18.6413C11.3489 18.1444 11.1308 17.6773 10.7656 17.3427C10.4003 17.0082 9.91787 16.8335 9.42435 16.8572C9.17998 16.8689 8.94025 16.929 8.71885 17.034C8.49744 17.139 8.29869 17.2868 8.13396 17.4691C7.96922 17.6514 7.84172 17.8645 7.75873 18.0963C7.67574 18.328 7.63889 18.574 7.65028 18.82C7.6733 19.3168 7.89142 19.7839 8.25666 20.1185C8.62191 20.4531 9.10436 20.6277 9.59788 20.604C9.84225 20.5923 10.082 20.5322 10.3034 20.4272C10.5248 20.3223 10.7235 20.1744 10.8883 19.9922C11.053 19.8099 11.1805 19.5968 11.2635 19.365C11.3465 19.1332 11.3833 18.8873 11.3719 18.6413ZM5.26618 22.0486C4.44256 20.9955 2.86718 21.5942 2.75636 22.875C2.75304 22.9177 2.77134 22.9326 2.81127 22.9197L5.24123 22.134C5.28981 22.1184 5.29813 22.0899 5.26618 22.0486Z" fill="url(#paint0_linear_4580_15402)"/>
<path d="M18.7757 5.74649C19.0453 5.74649 19.2639 5.52394 19.2639 5.24941C19.2639 4.97488 19.0453 4.75233 18.7757 4.75233C18.5061 4.75233 18.2875 4.97488 18.2875 5.24941C18.2875 5.52394 18.5061 5.74649 18.7757 5.74649Z" fill="url(#paint1_linear_4580_15402)"/>
<path d="M12.6629 8.59379C12.6629 9.40474 12.3465 10.1825 11.7833 10.7559C11.2202 11.3294 10.4563 11.6515 9.65988 11.6515C8.86344 11.6515 8.09961 11.3294 7.53644 10.7559C6.97327 10.1825 6.65688 9.40474 6.65688 8.59379C6.65688 7.78283 6.97327 7.00509 7.53644 6.43165C8.09961 5.85822 8.86344 5.53607 9.65988 5.53607C10.4563 5.53607 11.2202 5.85822 11.7833 6.43165C12.3465 7.00509 12.6629 7.78283 12.6629 8.59379ZM11.6756 8.65572C11.6834 8.38926 11.639 8.12382 11.5448 7.87458C11.4507 7.62533 11.3087 7.39715 11.1271 7.20308C10.9454 7.009 10.7275 6.85282 10.4859 6.74346C10.2443 6.63409 9.98374 6.57369 9.71902 6.56569C9.18441 6.54953 8.66547 6.74782 8.27635 7.11693C7.88723 7.48604 7.65982 7.99573 7.64413 8.53388C7.63636 8.80035 7.68081 9.06579 7.77493 9.31503C7.86906 9.56428 8.01102 9.79245 8.19271 9.98653C8.3744 10.1806 8.59225 10.3368 8.83384 10.4461C9.07543 10.5555 9.33603 10.6159 9.60074 10.6239C10.1354 10.6401 10.6543 10.4418 11.0434 10.0727C11.4325 9.70357 11.6599 9.19388 11.6756 8.65572Z" fill="url(#paint2_linear_4580_15402)"/>
<path d="M10.883 13.6348C10.8368 13.5862 10.8005 13.5288 10.7761 13.4659C10.7517 13.4031 10.7397 13.3359 10.7408 13.2683C10.7419 13.2007 10.7561 13.134 10.7825 13.072C10.809 13.01 10.8472 12.9539 10.895 12.9069L10.9049 12.8978C11.4065 12.4049 12.0801 12.1354 12.7776 12.1485C13.4752 12.1617 14.1396 12.4564 14.6247 12.9679L14.6277 12.971C15.1128 13.4825 15.3789 14.1688 15.3675 14.8791C15.356 15.5894 15.0681 16.2654 14.5668 16.7586L14.5569 16.7677C14.4606 16.8624 14.3313 16.9143 14.1975 16.912C14.0636 16.9097 13.9362 16.8534 13.8431 16.7555L10.883 13.6348ZM14.1935 15.5865C14.8154 14.1105 13.5086 12.6751 12.044 13.3257C12.0382 13.3282 12.0331 13.3321 12.0291 13.3371C12.025 13.3421 12.0223 13.348 12.021 13.3543C12.0197 13.3606 12.02 13.3671 12.0217 13.3733C12.0235 13.3795 12.0267 13.3851 12.0311 13.3898L14.1366 15.5967C14.1612 15.6224 14.1802 15.619 14.1935 15.5865Z" fill="url(#paint3_linear_4580_15402)"/>
<defs>
<linearGradient id="paint0_linear_4580_15402" x1="0" y1="0" x2="25.9169" y2="23.9233" gradientUnits="userSpaceOnUse">
<stop stop-color="#3D4ABA"/>
<stop offset="1" stop-color="#26329C"/>
</linearGradient>
<linearGradient id="paint1_linear_4580_15402" x1="0" y1="0" x2="25.9169" y2="23.9233" gradientUnits="userSpaceOnUse">
<stop stop-color="#3D4ABA"/>
<stop offset="1" stop-color="#26329C"/>
</linearGradient>
<linearGradient id="paint2_linear_4580_15402" x1="0" y1="0" x2="25.9169" y2="23.9233" gradientUnits="userSpaceOnUse">
<stop stop-color="#3D4ABA"/>
<stop offset="1" stop-color="#26329C"/>
</linearGradient>
<linearGradient id="paint3_linear_4580_15402" x1="0" y1="0" x2="25.9169" y2="23.9233" gradientUnits="userSpaceOnUse">
<stop stop-color="#3D4ABA"/>
<stop offset="1" stop-color="#26329C"/>
</linearGradient>
</defs>
</svg>
