<svg width="72" height="72" viewBox="0 0 72 72" fill="none" xmlns="http://www.w3.org/2000/svg">
<path fill-rule="evenodd" clip-rule="evenodd" d="M36 72C55.8823 72 72 55.8823 72 36C72 16.1177 55.8823 0 36 0C16.1177 0 0 16.1177 0 36C0 55.8823 16.1177 72 36 72ZM36 21C34.3431 21 33 22.3431 33 24V33H24C22.3431 33 21 34.3431 21 36C21 37.6569 22.3431 39 24 39H33V48C33 49.6569 34.3431 51 36 51C37.6569 51 39 49.6569 39 48V39H48C49.6569 39 51 37.6569 51 36C51 34.3431 49.6569 33 48 33H39V24C39 22.3431 37.6569 21 36 21Z" fill="#3A385C"/>
</svg>
