<svg width="24" height="24" viewBox="0 0 24 24" fill="none" xmlns="http://www.w3.org/2000/svg">
<path d="M7 13H13M9 8.99998H11M7 17H13M16 21H18.5M17 21H7.8C6.11984 21 5.27976 21 4.63803 20.673C4.07354 20.3854 3.6146 19.9264 3.32698 19.362C3 18.7202 3 17.8801 3 16.2V5.75707C3 4.85168 3 4.39898 3.1902 4.13646C3.35611 3.90746 3.61123 3.75941 3.89237 3.72897C4.21467 3.69408 4.60772 3.91868 5.39382 4.36788L5.70618 4.54637C5.99552 4.71171 6.14019 4.79438 6.29383 4.82675C6.42978 4.85539 6.57022 4.85539 6.70617 4.82675C6.85981 4.79438 7.00448 4.71171 7.29382 4.54637L9.20618 3.4536C9.49552 3.28826 9.64019 3.20559 9.79383 3.17322C9.92978 3.14457 10.0702 3.14457 10.2062 3.17322C10.3598 3.20559 10.5045 3.28826 10.7938 3.45359L12.7062 4.54637C12.9955 4.7117 13.1402 4.79438 13.2938 4.82675C13.4298 4.85539 13.5702 4.85539 13.7062 4.82675C13.8598 4.79438 14.0045 4.7117 14.2938 4.54637L14.6062 4.36788C15.3923 3.91868 15.7853 3.69408 16.1076 3.72897C16.3888 3.75941 16.6439 3.90746 16.8098 4.13646C17 4.39898 17 4.85168 17 5.75707V14M17 13H21V19C21 20.1046 20.1046 21 19 21C17.8954 21 17 20.1046 17 19V13Z" stroke="#9B51E0" stroke-width="2" stroke-linecap="round" stroke-linejoin="round"/>
</svg>
