<svg width="33" height="33" viewBox="0 0 33 33" fill="none" xmlns="http://www.w3.org/2000/svg">
<rect width="33" height="33" rx="16" fill="#181629"/>
<path d="M28.6803 22.6855C28.6321 21.2529 27.9745 20.0289 26.7789 19.1459C25.9412 18.5273 24.9776 18.0929 23.6539 17.7377C23.2924 17.6405 22.9317 17.5579 22.5831 17.4782C22.3231 17.4186 22.0777 17.3625 21.8319 17.3008C21.5381 17.2271 21.2909 17.1847 21.0757 17.1117C20.9525 17.0702 20.7656 17.0222 20.6697 16.9448C20.6018 16.8898 20.6355 16.7544 20.6768 16.6773C21.1446 15.8002 21.562 14.8849 21.7687 13.8142C22.8697 12.9234 22.908 11.6124 22.9253 11.0222C22.9374 10.6047 22.8354 10.2541 22.6347 9.99024C22.639 9.56277 22.6421 9.12195 22.6209 8.67488C22.5966 8.16868 22.5184 7.69321 22.3881 7.26121C21.956 5.83049 20.9994 4.85542 19.6218 4.44151C19.5899 4.43188 19.5586 4.42365 19.5281 4.41658C19.0501 3.84093 18.2204 3.30029 16.7908 3.30029C15.9043 3.30029 15.0098 3.50168 14.3295 3.6771C13.2051 3.96696 12.3478 4.46968 11.7085 5.21403C10.8268 6.24034 10.436 7.50561 10.5139 9.08196C10.5301 9.41158 10.5633 9.73355 10.5989 10.0473C10.3944 10.2985 10.2542 10.6639 10.2678 11.1955C10.2949 12.2591 10.6753 13.1028 11.4623 13.8399C11.4914 13.9486 11.5187 14.0649 11.5471 14.1859C11.6032 14.4251 11.6613 14.6725 11.748 14.9336C11.9229 15.4607 12.2639 15.8819 12.3831 16.3608C12.4838 16.7649 12.4325 16.8255 12.1845 16.9091C12.0862 16.9422 11.8542 17.0176 11.7497 17.0468C11.3147 17.169 10.9169 17.2447 10.4811 17.3636C9.86104 17.5326 9.22 17.7076 8.58777 17.89C7.8047 18.1162 6.64899 18.5128 5.65931 19.3409C4.94813 19.9356 4.10964 20.7909 3.93607 22.1354C3.825 22.996 3.82094 23.8867 3.9239 24.783C4.00912 25.5242 4.38593 26.0963 5.04378 26.4839C6.11566 27.1152 7.30986 27.6287 8.69467 28.0534C10.9424 28.7426 13.3408 29.1108 15.8235 29.1469C15.9801 29.1494 16.136 29.1503 16.2923 29.1503C19.1621 29.1503 21.7497 28.7687 24.2033 27.9836C25.3892 27.6041 26.4294 27.1421 27.3832 26.5716C28.3272 26.0069 28.566 25.2558 28.6002 24.7247C28.6075 24.6093 28.6156 24.4938 28.6235 24.3783C28.6609 23.8324 28.6997 23.2683 28.6803 22.6855Z" fill="#07E092"/>
<path d="M27.4424 24.6503C27.4146 25.0841 27.1468 25.3611 26.7871 25.5762C25.8603 26.1306 24.8749 26.5504 23.8492 26.8788C21.2436 27.7122 18.5671 28.0263 15.8396 27.9868C13.5217 27.9531 11.2508 27.6242 9.03392 26.9442C7.84807 26.5805 6.70465 26.1162 5.63149 25.4841C5.29955 25.2885 5.11938 25.0359 5.07497 24.6498C4.98408 23.8591 4.9835 23.071 5.08518 22.283C5.20007 21.3925 5.75288 20.7729 6.40227 20.2298C7.1341 19.6176 8.00401 19.2649 8.9087 19.0036C9.96922 18.6971 11.0374 18.4177 12.1002 18.1195C12.4621 19.0734 12.9464 19.8634 13.5469 20.4746C14.3778 21.3201 15.4118 21.7857 16.4585 21.7857C18.0126 21.7857 19.4471 20.793 20.2953 19.1305C20.4512 18.8252 20.5896 18.5099 20.7132 18.184C20.9881 18.2771 21.2675 18.3546 21.5492 18.4252C22.1489 18.5759 22.756 18.6972 23.3531 18.8576C24.3282 19.1194 25.2655 19.4699 26.0897 20.0786C26.9835 20.7386 27.4839 21.618 27.5214 22.7246C27.5426 23.3651 27.4834 24.0091 27.4424 24.6503ZM12.3284 13.0613C12.4264 13.1485 12.5067 13.2803 12.5439 13.4066C12.6571 13.7904 12.7216 14.1892 12.8474 14.5682C13.153 15.4888 13.6196 16.3279 14.3667 16.9563C15.0616 17.5408 15.8703 17.8207 16.6652 17.8207C17.8396 17.8207 18.9843 17.2098 19.6893 16.0684C20.1946 15.2495 20.4975 14.364 20.661 13.4221C20.6828 13.2976 20.7221 13.1254 20.8114 13.0718C21.6088 12.5906 21.7414 11.8115 21.7655 10.9883C21.7745 10.6814 21.7019 10.6305 21.4699 10.6067C21.4699 9.97728 21.4917 9.35258 21.462 8.73044C21.4437 8.34969 21.3872 7.96059 21.2772 7.59653C20.9702 6.57961 20.3287 5.86494 19.2873 5.55213C19.1277 5.50413 18.8966 5.56083 18.8097 5.40918C18.3976 4.6908 17.6364 4.45996 16.7898 4.45996C16.0737 4.45996 15.2966 4.62506 14.6181 4.80002C13.8348 5.00199 13.1256 5.34262 12.5869 5.96975C11.8297 6.85126 11.6156 7.90308 11.671 9.02516C11.6977 9.56719 11.7772 10.1067 11.8341 10.6611C11.4288 10.6934 11.4176 10.8399 11.4259 11.1661C11.4463 11.9698 11.725 12.525 12.3284 13.0613Z" fill="#181629"/>
</svg>
