<svg width="31" height="38" viewBox="0 0 31 38" fill="none" xmlns="http://www.w3.org/2000/svg">
<g clip-path="url(#clip0_4648_12313)">
<path d="M0.154297 8.30518L4.75078 16.5635V21.6008L0.159674 29.8429L0.154297 8.30518Z" fill="#5B57A2"/>
<path d="M17.8008 13.5572L22.1078 10.9038L30.9225 10.8955L17.8008 18.9755V13.5572Z" fill="#D90751"/>
<path d="M17.7762 8.25577L17.8006 19.1895L13.1934 16.344V0L17.7762 8.25577Z" fill="#FAB718"/>
<path d="M30.9223 10.8959L22.1073 10.9042L17.7762 8.25577L13.1934 0L30.9223 10.8959Z" fill="#ED6F26"/>
<path d="M17.8006 29.8882V24.5834L13.1934 21.792L13.1959 38.1522L17.8006 29.8882Z" fill="#63B22F"/>
<path d="M22.0992 27.2594L4.75046 16.5635L0.154297 8.30518L30.906 27.2486L22.0992 27.2594Z" fill="#1487C9"/>
<path d="M13.1953 38.1512L17.7994 29.8872L22.0957 27.2579L30.9025 27.2471L13.1953 38.1512Z" fill="#017F36"/>
<path d="M0.160156 29.8423L13.2338 21.7922L8.8385 19.0815L4.75126 21.6002L0.160156 29.8423Z" fill="#984995"/>
</g>
<defs>
<clipPath id="clip0_4648_12313">
<rect width="31" height="38" fill="white"/>
</clipPath>
</defs>
</svg>
