<svg width="18" height="17" viewBox="0 0 18 17" fill="none" xmlns="http://www.w3.org/2000/svg">
<path d="M8.37052 2.47825C8.56342 1.92332 8.65986 1.64586 8.80248 1.56896C8.92591 1.5024 9.07455 1.5024 9.19798 1.56896C9.3406 1.64586 9.43705 1.92332 9.62994 2.47825L10.9052 6.14691C10.9601 6.30485 10.9875 6.38382 11.037 6.44263C11.0807 6.49458 11.1364 6.53507 11.1993 6.56057C11.2705 6.58944 11.3541 6.59115 11.5213 6.59455L15.4045 6.67369C15.9918 6.68566 16.2855 6.69164 16.4027 6.80352C16.5042 6.90034 16.5501 7.0417 16.5249 7.17966C16.4959 7.33906 16.2618 7.51653 15.7936 7.87146L12.6986 10.218C12.5654 10.319 12.4987 10.3695 12.4581 10.4347C12.4222 10.4923 12.4009 10.5578 12.3961 10.6255C12.3906 10.7022 12.4148 10.7822 12.4633 10.9423L13.588 14.6598C13.7581 15.2221 13.8432 15.5033 13.773 15.6494C13.7122 15.7757 13.592 15.8631 13.453 15.8818C13.2924 15.9034 13.0513 15.7357 12.5691 15.4001L9.38102 13.1816C9.24377 13.0861 9.17514 13.0384 9.10056 13.0199C9.03467 13.0035 8.96579 13.0035 8.8999 13.0199C8.82532 13.0384 8.75669 13.0861 8.61944 13.1816L5.43138 15.4001C4.94915 15.7357 4.70803 15.9034 4.54745 15.8818C4.40847 15.8631 4.28823 15.7757 4.22749 15.6494C4.1573 15.5033 4.24237 15.2221 4.41249 14.6598L5.5372 10.9423C5.58562 10.7822 5.60983 10.7022 5.60438 10.6255C5.59956 10.5578 5.57828 10.4923 5.54237 10.4347C5.50172 10.3695 5.4351 10.319 5.30186 10.218L2.20682 7.87146C1.73866 7.51653 1.50458 7.33906 1.47551 7.17966C1.45036 7.0417 1.49629 6.90034 1.59773 6.80352C1.71494 6.69164 2.00863 6.68566 2.596 6.67369L6.47917 6.59455C6.64634 6.59115 6.72993 6.58944 6.80115 6.56057C6.86406 6.53507 6.91979 6.49458 6.96348 6.44263C7.01295 6.38382 7.0404 6.30485 7.0953 6.14691L8.37052 2.47825Z" stroke="url(#paint0_linear_4954_1500)" stroke-width="1.5" stroke-linecap="round" stroke-linejoin="round"/>
<defs>
<linearGradient id="paint0_linear_4954_1500" x1="0.44173" y1="2.49845" x2="15.8083" y2="17.7549" gradientUnits="userSpaceOnUse">
<stop stop-color="#F2994A"/>
<stop offset="0.953125" stop-color="#FFB878"/>
<stop offset="1" stop-color="#F2994A" stop-opacity="0"/>
</linearGradient>
</defs>
</svg>
