<svg width="24" height="24" viewBox="0 0 24 24" fill="none" xmlns="http://www.w3.org/2000/svg">
<path d="M12.3967 4.55743C12.2283 4.2161 11.8806 4 11.5 4C11.1194 4 10.7717 4.2161 10.6033 4.55743L8.63174 8.55218L4.22328 9.19277C3.84659 9.2475 3.53364 9.51134 3.41602 9.87336C3.29839 10.2354 3.39649 10.6328 3.66906 10.8985L6.85906 14.0079L6.106 18.3986C6.04166 18.7737 6.19588 19.1529 6.50383 19.3766C6.81177 19.6004 7.22003 19.6299 7.55695 19.4528L11.5 17.3798L15.443 19.4528C15.78 19.6299 16.1882 19.6004 16.4962 19.3766C16.8041 19.1529 16.9583 18.7737 16.894 18.3986L16.1409 14.0079L19.3309 10.8985C19.6035 10.6328 19.7016 10.2354 19.584 9.87336C19.4664 9.51134 19.1534 9.2475 18.7767 9.19277L14.3683 8.55218L12.3967 4.55743Z" stroke="#FFA556" stroke-width="2" stroke-linejoin="round"/>
</svg>
