<svg width="21" height="21" viewBox="0 0 21 21" fill="none" xmlns="http://www.w3.org/2000/svg">
<path d="M12.05 5C13.0268 5.19057 13.9244 5.66826 14.6281 6.37194C15.3318 7.07561 15.8095 7.97326 16 8.95M12.05 1C14.0793 1.22544 15.9716 2.13417 17.4163 3.57701C18.8609 5.01984 19.7721 6.91101 20 8.94M16.5 20C7.93959 20 1 13.0604 1 4.5C1 4.11378 1.01413 3.73086 1.04189 3.35173C1.07375 2.91662 1.08968 2.69907 1.2037 2.50103C1.29814 2.33701 1.4655 2.18146 1.63598 2.09925C1.84181 2 2.08188 2 2.56201 2H5.37932C5.78308 2 5.98496 2 6.15802 2.06645C6.31089 2.12515 6.44701 2.22049 6.55442 2.3441C6.67601 2.48403 6.745 2.67376 6.88299 3.05321L8.04911 6.26005C8.20965 6.70153 8.28992 6.92227 8.27629 7.1317C8.26427 7.31637 8.20125 7.49408 8.09423 7.64506C7.97286 7.81628 7.77145 7.93713 7.36863 8.17882L6 9C7.2019 11.6489 9.35014 13.7999 12 15L12.8212 13.6314C13.0629 13.2285 13.1837 13.0271 13.3549 12.9058C13.5059 12.7988 13.6836 12.7357 13.8683 12.7237C14.0777 12.7101 14.2985 12.7904 14.74 12.9509L17.9468 14.117C18.3262 14.255 18.516 14.324 18.6559 14.4456C18.7795 14.553 18.8749 14.6891 18.9335 14.842C19 15.015 19 15.2169 19 15.6207V18.438C19 18.9181 19 19.1582 18.9007 19.364C18.8185 19.5345 18.663 19.7019 18.499 19.7963C18.3009 19.9103 18.0834 19.9262 17.6483 19.9581C17.2691 19.9859 16.8862 20 16.5 20Z" stroke="#9B51E0" stroke-width="1.6" stroke-linecap="round" stroke-linejoin="round"/>
</svg>
