<svg width="15" height="15" viewBox="0 0 15 15" fill="none" xmlns="http://www.w3.org/2000/svg">
<path fill-rule="evenodd" clip-rule="evenodd" d="M7.5 1.5C4.18629 1.5 1.5 4.18629 1.5 7.5C1.5 10.8137 4.18629 13.5 7.5 13.5C10.8137 13.5 13.5 10.8137 13.5 7.5C13.5 4.18629 10.8137 1.5 7.5 1.5ZM0 7.5C0 3.35786 3.35786 0 7.5 0C11.6421 0 15 3.35786 15 7.5C15 11.6421 11.6421 15 7.5 15C3.35786 15 0 11.6421 0 7.5ZM7.60834 5.26348C7.39042 5.2261 7.16631 5.26705 6.97569 5.37908C6.78507 5.49111 6.64025 5.66699 6.56688 5.87556C6.42942 6.2663 6.00123 6.47163 5.61049 6.33418C5.21975 6.19672 5.01442 5.76854 5.15187 5.37779C5.3428 4.83506 5.71964 4.3774 6.21566 4.08588C6.71168 3.79437 7.29487 3.6878 7.86193 3.78507C8.42899 3.88234 8.94333 4.17715 9.31385 4.6173C9.68428 5.05735 9.88706 5.61426 9.88631 6.18945C9.88596 7.14929 9.17596 7.76631 8.70921 8.07748C8.45296 8.24831 8.20204 8.37324 8.01814 8.45497C7.92513 8.49631 7.84657 8.52778 7.78952 8.54952C7.76092 8.56041 7.73755 8.56893 7.72026 8.57507L7.69892 8.58255L7.69184 8.58496L7.68922 8.58585L7.68815 8.58621C7.68815 8.58621 7.68723 8.58651 7.45006 7.875L7.68815 8.58621C7.29519 8.71719 6.86954 8.50513 6.73855 8.11217C6.60761 7.71935 6.81979 7.29476 7.21249 7.16362L7.21152 7.16395L7.21774 7.16175C7.22515 7.15912 7.23801 7.15446 7.25552 7.14779C7.29068 7.13439 7.34386 7.11317 7.40894 7.08425C7.54121 7.02546 7.71185 6.93961 7.87716 6.8294C8.25342 6.57856 8.38631 6.35269 8.38631 6.18876L8.38631 6.18764C8.38664 5.96654 8.3087 5.75245 8.16631 5.58331C8.02392 5.41416 7.82626 5.30086 7.60834 5.26348ZM6.7207 10.125C6.7207 9.71079 7.05649 9.375 7.4707 9.375H7.4782C7.89242 9.375 8.2282 9.71079 8.2282 10.125C8.2282 10.5392 7.89242 10.875 7.4782 10.875H7.4707C7.05649 10.875 6.7207 10.5392 6.7207 10.125Z" fill="#9B51E0"/>
</svg>
