<svg width="21" height="16" viewBox="0 0 21 16" fill="none" xmlns="http://www.w3.org/2000/svg">
<path d="M5.17654 16C4.25986 16 3.4726 15.8518 2.81474 15.5554C2.15689 15.259 1.61767 14.8515 1.19708 14.3328C0.787266 13.8141 0.485301 13.2213 0.291181 12.5544C0.0970603 11.8769 0 11.1677 0 10.4267V4.63113H3.15446V10.4267C3.15446 10.7972 3.1922 11.1518 3.26769 11.4906C3.34318 11.8293 3.46181 12.131 3.62358 12.3956C3.78535 12.6603 3.99025 12.872 4.23829 13.0308C4.49712 13.179 4.80987 13.2531 5.17654 13.2531C5.554 13.2531 5.87214 13.179 6.13097 13.0308C6.38979 12.872 6.5947 12.6603 6.74568 12.3956C6.90745 12.1204 7.02608 11.8134 7.10157 11.4747C7.17706 11.1359 7.21481 10.7866 7.21481 10.4267V3.41182L5.5853 3.41182L8.79203 0L11.937 3.41182L10.3693 3.41182V10.4267C10.3693 11.21 10.2614 11.9404 10.0457 12.6179C9.84082 13.2954 9.52807 13.8882 9.10748 14.3963C8.68689 14.9044 8.14766 15.3014 7.48981 15.5872C6.84274 15.8624 6.07165 16 5.17654 16Z" fill="white"/>
<path d="M12.1837 15.9047V4.63113H17.1338C17.6946 4.63113 18.2122 4.74228 18.6867 4.96458C19.1613 5.18688 19.5711 5.48856 19.9162 5.86964C20.2613 6.24014 20.5255 6.65826 20.7088 7.12403C20.9029 7.58979 21 8.06085 21 8.5372C21 9.20409 20.8382 9.83393 20.5147 10.4267C20.202 11.0195 19.7598 11.5064 19.1882 11.8875C18.6274 12.258 17.9696 12.4433 17.2147 12.4433H15.3382V15.9047H12.1837ZM15.3382 9.74395H17.0044C17.1338 9.74395 17.2578 9.7069 17.3764 9.6328C17.4951 9.5587 17.5921 9.43168 17.6676 9.25172C17.7539 9.07177 17.797 8.83359 17.797 8.5372C17.797 8.21963 17.7485 7.97616 17.6514 7.80679C17.5652 7.62684 17.4519 7.50511 17.3117 7.44159C17.1823 7.3675 17.0529 7.33045 16.9235 7.33045H15.3382V9.74395Z" fill="white"/>
</svg>
