<svg width="35" height="26" viewBox="0 0 35 26" fill="none" xmlns="http://www.w3.org/2000/svg">
<path d="M8.62757 26C7.09977 26 5.78766 25.7592 4.69124 25.2775C3.59482 24.7959 2.69612 24.1336 1.99513 23.2908C1.31211 22.4479 0.808835 21.4846 0.485301 20.4009C0.161767 19.3 0 18.1475 0 16.9434V7.52559H5.25742V16.9434C5.25742 17.5455 5.32033 18.1217 5.44615 18.6722C5.57197 19.2226 5.76969 19.7129 6.0393 20.1429C6.30891 20.5729 6.65042 20.917 7.06382 21.175C7.4952 21.4158 8.01645 21.5362 8.62757 21.5362C9.25666 21.5362 9.7869 21.4158 10.2183 21.175C10.6497 20.917 10.9912 20.5729 11.2428 20.1429C11.5124 19.6957 11.7101 19.1968 11.8359 18.6464C11.9618 18.0959 12.0247 17.5283 12.0247 16.9434V5.54421L9.30883 5.54421L14.6534 0L19.895 5.54421L17.2821 5.54421V16.9434C17.2821 18.2163 17.1024 19.4032 16.7429 20.5041C16.4014 21.605 15.8801 22.5683 15.1791 23.394C14.4781 24.2196 13.5794 24.8647 12.483 25.3291C11.4046 25.7764 10.1194 26 8.62757 26Z" fill="#9A95B2"/>
<path d="M20.3062 25.8452V7.52559H28.5563C29.4909 7.52559 30.3537 7.70621 31.1446 8.06744C31.9354 8.42867 32.6184 8.91891 33.1936 9.53817C33.7688 10.1402 34.2091 10.8197 34.5147 11.5765C34.8382 12.3334 35 13.0989 35 13.8729C35 14.9566 34.7304 15.9801 34.1912 16.9434C33.6699 17.9067 32.933 18.698 31.9804 19.3172C31.0457 19.9193 29.9493 20.2203 28.6911 20.2203H25.5636V25.8452H20.3062ZM25.5636 15.8339H28.3406C28.5563 15.8339 28.763 15.7737 28.9607 15.6533C29.1584 15.5329 29.3202 15.3265 29.446 15.034C29.5898 14.7416 29.6617 14.3546 29.6617 13.8729C29.6617 13.3569 29.5808 12.9613 29.419 12.686C29.2753 12.3936 29.0865 12.1958 28.8529 12.0926C28.6372 11.9722 28.4215 11.912 28.2058 11.912H25.5636V15.8339Z" fill="#9A95B2"/>
</svg>
