<svg width="35" height="35" viewBox="0 0 35 35" fill="none" xmlns="http://www.w3.org/2000/svg">
<path fill-rule="evenodd" clip-rule="evenodd" d="M4.17 4.17C2 6.36067 2 9.86367 2 16.88V18.12C2 25.126 2 28.629 4.17 30.83C6.36067 33 9.86367 33 16.88 33H18.12C25.126 33 28.629 33 30.83 30.83C33 28.6393 33 25.1363 33 18.12V16.88C33 9.874 33 6.371 30.83 4.17C28.6393 2 25.1363 2 18.12 2H16.88C9.874 2 6.371 2 4.17 4.17ZM7.22891 11.4338C7.39424 19.4938 11.4242 24.3298 18.4922 24.3298H18.5026H18.9056V19.7212C21.4992 19.9795 23.4626 21.8808 24.2479 24.3298H27.9162C27.54 22.9382 26.873 21.6422 25.9593 20.5272C25.0455 19.4121 23.9058 18.5035 22.6152 17.8612C23.7717 17.1569 24.7705 16.2217 25.5492 15.1141C26.328 14.0064 26.8699 12.7501 27.1412 11.4235H23.8139C23.0906 13.9862 20.9412 16.3112 18.9056 16.5282V11.4338H15.5679V20.3618C13.5012 19.8452 10.8972 17.3445 10.7836 11.4338H7.22891Z" fill="white"/>
</svg>
